<svg id="Layer_1" data-name="Layer 1" xmlns="http://www.w3.org/2000/svg" viewBox="0 0 200 130"><defs><style>.cls-1{fill:#fff;}.cls-2{fill:#ffd633;}.cls-3{fill:#f2f2f2;}.cls-4{fill:#ffe3e3;}.cls-5{fill:#d9f7ff;}.cls-6{fill:#e3ffe3;}.cls-7{fill:#89d977;}.cls-8{fill:#b3b3b3;}.cls-9{fill:#9c8b75;}.cls-10{fill:#d95959;}.cls-11{fill:#8dd8f8;}</style></defs><title>alotShade</title><rect class="cls-1" width="200" height="130"/><path class="cls-2" d="M122.5,35.5a11.75,11.75,0,1,1,11.75-11.75A11.76,11.76,0,0,1,122.5,35.5Zm0-18.5a6.75,6.75,0,1,0,6.75,6.75A6.76,6.76,0,0,0,122.5,17Z"/><path class="cls-2" d="M113.25,26.25H104a2.5,2.5,0,0,1,0-5h9.25a2.5,2.5,0,0,1,0,5Z"/><path class="cls-2" d="M141,26.25h-9.25a2.5,2.5,0,0,1,0-5H141a2.5,2.5,0,0,1,0,5Z"/><path class="cls-2" d="M122.5,44.75a2.5,2.5,0,0,1-2.5-2.5V33a2.5,2.5,0,0,1,5,0v9.25A2.5,2.5,0,0,1,122.5,44.75Z"/><path class="cls-2" d="M122.5,17a2.5,2.5,0,0,1-2.5-2.5V5.25a2.5,2.5,0,0,1,5,0V14.5A2.5,2.5,0,0,1,122.5,17Z"/><path class="cls-2" d="M135.58,39.33a2.49,2.49,0,0,1-1.77-.73l-6.54-6.54a2.5,2.5,0,1,1,3.54-3.54l6.54,6.54a2.5,2.5,0,0,1-1.77,4.27Z"/><path class="cls-2" d="M116,19.71a2.49,2.49,0,0,1-1.77-.73l-6.54-6.54a2.5,2.5,0,0,1,3.54-3.54l6.54,6.54a2.52,2.52,0,0,1,0,3.54A2.49,2.49,0,0,1,116,19.71Z"/><path class="cls-2" d="M129,19.71a2.49,2.49,0,0,1-1.77-.73,2.52,2.52,0,0,1,0-3.54l6.54-6.54a2.5,2.5,0,0,1,3.54,3.54L130.81,19A2.49,2.49,0,0,1,129,19.71Z"/><path class="cls-2" d="M109.42,39.33a2.5,2.5,0,0,1-1.77-4.27l6.54-6.54a2.5,2.5,0,1,1,3.54,3.54l-6.54,6.54A2.49,2.49,0,0,1,109.42,39.33Z"/><polygon class="cls-3" points="51 66.25 51 74.25 97 57.25 141 74.25 141 66.25 97 47.25 51 66.25"/><polygon class="cls-3" points="67 48.25 57 53.25 57 32.25 67 32.25 67 48.25"/><path class="cls-4" d="M79.5,71.25h0A12.5,12.5,0,0,1,92,83.75v29.5a0,0,0,0,1,0,0H67a0,0,0,0,1,0,0V83.75a12.5,12.5,0,0,1,12.5-12.5Z"/><rect class="cls-5" x="101" y="72.25" width="31" height="25"/><path class="cls-6" d="M57,32.25s-10-10-18-10-32,11-32,41,16,40.82,25.5,43.91v16.09H42l1-16,9-4,.35-37.5-3.85,2-1-10,10.5-5Z"/><path class="cls-6" d="M122,46.25s6-39,36-38,35,38,35,38,1,37-30,47l-1,29H152v-29l-9-4v-24l4.5,1.5v-9Z"/><path class="cls-6" d="M69,31.25s12-14,27-14,25.6,14,28.8,18l-2.8,12-25-10-19,8v-13Z"/><path class="cls-7" d="M162.5,125.25h-10a2.5,2.5,0,0,1-2.5-2.5V92.32h5v27.93h5V92.32h5v30.43A2.5,2.5,0,0,1,162.5,125.25Z"/><path class="cls-7" d="M42.5,125.25h-10a2.5,2.5,0,0,1-2.5-2.5V107.16h5v13.09h5V107.16h5v15.59A2.5,2.5,0,0,1,42.5,125.25Z"/><path class="cls-7" d="M157.5,95.25a32,32,0,0,1-5.42-.47,32.62,32.62,0,0,1-10.83-4l2.5-4.33a28.07,28.07,0,0,0,9.18,3.37,27,27,0,0,0,9.15,0C178,87.09,190,70.06,190,50.25c0-22.06-14.58-40-32.5-40-17.18,0-31.44,16.52-32.44,37.62l-5-.24C121.2,23.87,137.64,5.25,157.5,5.25c20.68,0,37.5,20.19,37.5,45,0,22.21-13.79,41.35-32.07,44.53A32.21,32.21,0,0,1,157.5,95.25Z"/><path class="cls-7" d="M125.83,32.85C119,21.59,108,14.25,95.5,14.25S72.2,21.41,65.35,32.5c.65,0,1.31-.08,2-.08a29.2,29.2,0,0,1,3.89.27c6-8.26,14.67-13.44,24.29-13.44,12,0,22.54,8.09,28.16,20.07A24.78,24.78,0,0,1,125.83,32.85Z"/><path class="cls-7" d="M37.5,110.25a23.85,23.85,0,0,1-5.58-.66C16.32,105.89,5,87.24,5,65.25c0-24.81,14.58-45,32.5-45,8.45,0,16.44,4.43,22.5,12.47l-4,3C50.91,29,44.34,25.25,37.5,25.25c-15.16,0-27.5,17.94-27.5,40,0,19.38,9.92,36.35,23.08,39.48a19.13,19.13,0,0,0,8.84,0,22.39,22.39,0,0,0,9-4.6L54.08,104a27.2,27.2,0,0,1-11,5.59A23.85,23.85,0,0,1,37.5,110.25Z"/><path class="cls-8" d="M142.5,125.25h-90a2.5,2.5,0,0,1-2.5-2.5v-57a2.5,2.5,0,0,1,1.57-2.32l45-18a2.49,2.49,0,0,1,1.86,0l45,18A2.5,2.5,0,0,1,145,65.75v57A2.5,2.5,0,0,1,142.5,125.25Zm-87.5-5h85V67.44l-42.5-17L55,67.44Z"/><path class="cls-9" d="M60.5,53.55h-5V32.25a2.5,2.5,0,0,1,2.5-2.5H78a2.5,2.5,0,0,1,2.5,2.5v13.3h-5V34.75h-15Z"/><path class="cls-9" d="M147.5,70.25a2.52,2.52,0,0,1-.93-.18L97.5,50.44,48.43,70.07A2.5,2.5,0,0,1,45,67.75v-10a2.5,2.5,0,0,1,1.57-2.32l50-20a2.49,2.49,0,0,1,1.86,0l50,20A2.5,2.5,0,0,1,150,57.75v10a2.5,2.5,0,0,1-1.1,2.07A2.53,2.53,0,0,1,147.5,70.25Zm-50-25a2.48,2.48,0,0,1,.93.18L145,64.06V59.44l-47.5-19L50,59.44v4.62L96.57,45.43A2.48,2.48,0,0,1,97.5,45.25Z"/><path class="cls-10" d="M93,114.75H68a2.5,2.5,0,0,1-2.5-2.5V84.75a15,15,0,0,1,30,0v27.5A2.5,2.5,0,0,1,93,114.75Zm-22.5-5h20v-25a10,10,0,0,0-20,0Z"/><path class="cls-8" d="M98,124.75H63a2.5,2.5,0,0,1-2.5-2.5v-10a2.5,2.5,0,0,1,2.5-2.5H98a2.5,2.5,0,0,1,2.5,2.5v10A2.5,2.5,0,0,1,98,124.75Zm-32.5-5h30v-5h-30Z"/><path class="cls-11" d="M133,99.75H102a2.5,2.5,0,0,1-2.5-2.5v-25a2.5,2.5,0,0,1,2.5-2.5h31a2.5,2.5,0,0,1,2.5,2.5v25A2.5,2.5,0,0,1,133,99.75Zm-28.5-5h26v-20h-26Z"/><path class="cls-11" d="M118,99.75a2.5,2.5,0,0,1-2.5-2.5v-24a2.5,2.5,0,0,1,5,0v24A2.5,2.5,0,0,1,118,99.75Z"/><circle class="cls-10" cx="86" cy="95.25" r="2.5"/></svg>