<svg viewBox="0 0 200 130" xmlns="http://www.w3.org/2000/svg"><path d="m0 0h200v130h-200z" fill="#fff"/><path d="m54.5 66.25v8l46-17 44 17v-8l-44-19z" fill="#f2f2f2"/><path d="m70.5 48.25-10 5v-21h10z" fill="#f2f2f2"/><path d="m83 71.25a12.5 12.5 0 0 1 12.5 12.5v29.5a0 0 0 0 1 0 0h-25a0 0 0 0 1 0 0v-29.5a12.5 12.5 0 0 1 12.5-12.5z" fill="#ffe3e3"/><path d="m104.5 72.25h31v25h-31z" fill="#d9f7ff"/><path d="m145 125.25h-90a2.5 2.5 0 0 1 -2.5-2.5v-57a2.5 2.5 0 0 1 1.57-2.32l45-18a2.49 2.49 0 0 1 1.86 0l45 18a2.5 2.5 0 0 1 1.57 2.32v57a2.5 2.5 0 0 1 -2.5 2.5zm-87.5-5h85v-52.81l-42.5-17-42.5 17z" fill="#b3b3b3"/><path d="m63 53.55h-5v-21.3a2.5 2.5 0 0 1 2.5-2.5h20a2.5 2.5 0 0 1 2.5 2.5v13.3h-5v-10.8h-15z" fill="#9c8b75"/><path d="m150 70.25a2.52 2.52 0 0 1 -.93-.18l-49.07-19.63-49.07 19.63a2.5 2.5 0 0 1 -3.43-2.32v-10a2.5 2.5 0 0 1 1.57-2.32l50-20a2.49 2.49 0 0 1 1.86 0l50 20a2.5 2.5 0 0 1 1.57 2.32v10a2.5 2.5 0 0 1 -1.1 2.07 2.53 2.53 0 0 1 -1.4.43zm-50-25a2.48 2.48 0 0 1 .93.18l46.57 18.63v-4.62l-47.5-19-47.5 19v4.62l46.57-18.63a2.48 2.48 0 0 1 .93-.18z" fill="#9c8b75"/><path d="m95.5 114.75h-25a2.5 2.5 0 0 1 -2.5-2.5v-27.5a15 15 0 0 1 30 0v27.5a2.5 2.5 0 0 1 -2.5 2.5zm-22.5-5h20v-25a10 10 0 0 0 -20 0z" fill="#d95959"/><path d="m100.5 124.75h-35a2.5 2.5 0 0 1 -2.5-2.5v-10a2.5 2.5 0 0 1 2.5-2.5h35a2.5 2.5 0 0 1 2.5 2.5v10a2.5 2.5 0 0 1 -2.5 2.5zm-32.5-5h30v-5h-30z" fill="#b3b3b3"/><path d="m135.5 99.75h-31a2.5 2.5 0 0 1 -2.5-2.5v-25a2.5 2.5 0 0 1 2.5-2.5h31a2.5 2.5 0 0 1 2.5 2.5v25a2.5 2.5 0 0 1 -2.5 2.5zm-28.5-5h26v-20h-26z" fill="#8dd8f8"/><path d="m120.5 99.75a2.5 2.5 0 0 1 -2.5-2.5v-24a2.5 2.5 0 0 1 5 0v24a2.5 2.5 0 0 1 -2.5 2.5z" fill="#8dd8f8"/><circle cx="88.5" cy="95.25" fill="#d95959" r="2.5"/><g fill="#ffd633"><path d="m131.5 35.5a11.75 11.75 0 1 1 11.75-11.75 11.76 11.76 0 0 1 -11.75 11.75zm0-18.5a6.75 6.75 0 1 0 6.75 6.75 6.76 6.76 0 0 0 -6.75-6.75z"/><path d="m122.25 26.25h-9.25a2.5 2.5 0 0 1 0-5h9.25a2.5 2.5 0 0 1 0 5z"/><path d="m150 26.25h-9.25a2.5 2.5 0 0 1 0-5h9.25a2.5 2.5 0 0 1 0 5z"/><path d="m131.5 44.75a2.5 2.5 0 0 1 -2.5-2.5v-9.25a2.5 2.5 0 0 1 5 0v9.25a2.5 2.5 0 0 1 -2.5 2.5z"/><path d="m131.5 17a2.5 2.5 0 0 1 -2.5-2.5v-9.25a2.5 2.5 0 0 1 5 0v9.25a2.5 2.5 0 0 1 -2.5 2.5z"/><path d="m144.58 39.33a2.49 2.49 0 0 1 -1.77-.73l-6.54-6.54a2.5 2.5 0 0 1 3.54-3.54l6.54 6.54a2.5 2.5 0 0 1 -1.77 4.27z"/><path d="m125 19.71a2.49 2.49 0 0 1 -1.77-.73l-6.54-6.54a2.5 2.5 0 0 1 3.54-3.54l6.54 6.54a2.52 2.52 0 0 1 0 3.54 2.49 2.49 0 0 1 -1.77.73z"/><path d="m138 19.71a2.49 2.49 0 0 1 -1.77-.73 2.52 2.52 0 0 1 0-3.54l6.54-6.54a2.5 2.5 0 0 1 3.54 3.54l-6.5 6.56a2.49 2.49 0 0 1 -1.81.71z"/><path d="m118.42 39.33a2.5 2.5 0 0 1 -1.77-4.27l6.54-6.54a2.5 2.5 0 1 1 3.54 3.54l-6.54 6.54a2.49 2.49 0 0 1 -1.77.73z"/></g></svg>