<svg width="159" height="20" viewBox="0 0 159 20" fill="none" xmlns="http://www.w3.org/2000/svg">
<path fill-rule="evenodd" clip-rule="evenodd" d="M156.982 7.57505C155.771 7.57505 154.609 8.72505 154.609 10.5501V14.7001C154.609 15.0501 154.173 15.3751 153.568 15.3751C152.963 15.3751 152.575 15.0251 152.575 14.7001V6.47505C152.575 6.07505 152.963 5.80005 153.568 5.80005C154.076 5.80005 154.512 6.07505 154.512 6.47505V7.37505C154.899 6.52505 155.844 5.67505 157.006 5.67505H157.611C157.998 5.67505 158.386 6.07505 158.386 6.57505C158.386 7.10005 157.998 7.55005 157.611 7.55005H156.982V7.57505Z" fill="white"/>
<path fill-rule="evenodd" clip-rule="evenodd" d="M148.436 9.84996C148.993 9.84996 149.162 9.72496 149.162 9.22496C149.162 8.14996 148.291 7.29996 147.177 7.29996C146.063 7.29996 145.192 8.09996 145.192 9.17496V9.79996H148.436V9.84996ZM151.075 9.44996C151.075 11.1 150.203 11.225 149.308 11.225H145.167V11.675C145.167 13.05 146.209 13.9 147.71 13.9C149.09 13.9 149.574 13.15 150.082 13.15C150.591 13.15 150.905 13.725 150.905 14.125C150.905 14.75 149.646 15.675 147.661 15.675C145.022 15.675 143.134 14.075 143.134 11.625V9.69996C143.134 7.59996 144.95 5.77496 147.225 5.77496C149.308 5.67496 151.075 7.22496 151.075 9.44996Z" fill="white"/>
<path fill-rule="evenodd" clip-rule="evenodd" d="M135.677 14.7C135.677 15.05 135.168 15.375 134.636 15.375C134.031 15.375 133.595 15.025 133.595 14.7V0.774976C133.595 0.374976 133.982 0.0999756 134.636 0.0999756C135.193 0.0999756 135.677 0.374976 135.677 0.774976V7.22498C136.064 6.42498 136.936 5.67498 138.171 5.67498C139.986 5.67498 141.584 7.49998 141.584 9.67498V14.7C141.584 15.15 141.027 15.375 140.543 15.375C140.059 15.375 139.551 15.15 139.551 14.7V9.67498C139.551 8.64998 138.679 7.57498 137.565 7.57498C136.621 7.57498 135.701 8.37498 135.701 9.67498L135.677 14.7Z" fill="white"/>
<path fill-rule="evenodd" clip-rule="evenodd" d="M125.145 11.5V9.675C125.145 7.4 126.404 5.625 129.164 5.625C130.931 5.625 132.142 6.375 132.142 7.1C132.142 7.5 131.803 8.125 131.319 8.125C130.931 8.125 130.544 7.5 129.285 7.5C127.784 7.5 127.13 8.3 127.13 9.675V11.5C127.13 12.8 127.784 13.675 129.285 13.675C130.544 13.675 130.883 13 131.319 13C131.876 13 132.19 13.575 132.19 14.025C132.19 14.7 130.931 15.575 129.091 15.575C126.404 15.55 125.145 13.825 125.145 11.5Z" fill="white"/>
<path fill-rule="evenodd" clip-rule="evenodd" d="M117.688 14.7001C117.688 15.0501 117.18 15.3751 116.647 15.3751C116.042 15.3751 115.654 15.0251 115.654 14.7001V6.47505C115.654 6.07505 116.042 5.80005 116.647 5.80005C117.155 5.80005 117.591 6.07505 117.591 6.47505V7.22505C117.979 6.42505 118.923 5.67505 120.23 5.67505C122.046 5.67505 123.644 7.50005 123.644 9.67505V14.7001C123.644 15.1501 123.135 15.3751 122.603 15.3751C122.094 15.3751 121.61 15.1501 121.61 14.7001V9.67505C121.61 8.65005 120.739 7.57505 119.625 7.57505C118.681 7.57505 117.761 8.37505 117.761 9.67505V14.7001H117.688Z" fill="white"/>
<path fill-rule="evenodd" clip-rule="evenodd" d="M105.655 11.55V6.47499C105.655 6.12499 106.091 5.79999 106.696 5.79999C107.253 5.79999 107.689 6.14999 107.689 6.47499V11.55C107.689 12.625 108.561 13.65 109.674 13.65C110.788 13.65 111.66 12.625 111.66 11.55V6.47499C111.66 6.12499 112.168 5.79999 112.701 5.79999C113.306 5.79999 113.693 6.14999 113.693 6.47499V11.55C113.693 13.65 111.877 15.55 109.674 15.55C107.471 15.55 105.655 13.675 105.655 11.55Z" fill="white"/>
<path fill-rule="evenodd" clip-rule="evenodd" d="M103.282 7.57505C102.072 7.57505 100.91 8.72505 100.91 10.5501V14.7001C100.91 15.0501 100.474 15.3751 99.8686 15.3751C99.2633 15.3751 98.876 15.0251 98.876 14.7001V6.47505C98.876 6.07505 99.2633 5.80005 99.8686 5.80005C100.377 5.80005 100.813 6.07505 100.813 6.47505V7.37505C101.2 6.52505 102.144 5.67505 103.307 5.67505H103.912C104.299 5.67505 104.687 6.07505 104.687 6.57505C104.687 7.10005 104.299 7.55005 103.912 7.55005H103.282V7.57505Z" fill="white"/>
<path fill-rule="evenodd" clip-rule="evenodd" d="M90.4268 11.5V9.675C90.4268 7.4 91.6857 5.625 94.4457 5.625C96.2131 5.625 97.4236 6.375 97.4236 7.1C97.4236 7.5 97.0847 8.125 96.6005 8.125C96.2131 8.125 95.8257 7.5 94.5668 7.5C93.0657 7.5 92.412 8.3 92.412 9.675V11.5C92.412 12.8 93.0657 13.675 94.5668 13.675C95.8257 13.675 96.1647 13 96.6005 13C97.1573 13 97.4721 13.575 97.4721 14.025C97.4721 14.7 96.2131 15.575 94.3731 15.575C91.7099 15.55 90.4268 13.825 90.4268 11.5Z" fill="white"/>
<path fill-rule="evenodd" clip-rule="evenodd" d="M88.6108 0.774976V14.675C88.6108 15.025 88.1024 15.35 87.5698 15.35C86.9645 15.35 86.5771 15 86.5771 14.675V0.774976C86.5771 0.374976 86.9645 0.0999756 87.5698 0.0999756C88.175 0.0999756 88.6108 0.374976 88.6108 0.774976Z" fill="white"/>
<path fill-rule="evenodd" clip-rule="evenodd" d="M84.2534 0.774976V14.675C84.2534 15.025 83.745 15.35 83.2124 15.35C82.6071 15.35 82.2197 15 82.2197 14.675V0.774976C82.2197 0.374976 82.6071 0.0999756 83.2124 0.0999756C83.7692 0.0999756 84.2534 0.374976 84.2534 0.774976Z" fill="white"/>
<path fill-rule="evenodd" clip-rule="evenodd" d="M80.0651 6.475V14.675C80.0651 15.025 79.6293 15.35 79.024 15.35C78.4187 15.35 78.0314 15 78.0314 14.675V6.475C78.0314 6.075 78.4672 5.8 79.024 5.8C79.6293 5.8 80.0651 6.075 80.0651 6.475ZM80.2345 2.275C80.2345 2.85 79.6777 3.425 79.024 3.425C78.3703 3.425 77.8135 2.9 77.8135 2.275C77.8135 1.65 78.3703 1.125 79.024 1.125C79.6777 1.175 80.2345 1.7 80.2345 2.275Z" fill="white"/>
<path fill-rule="evenodd" clip-rule="evenodd" d="M74.327 9.67498C74.327 8.64998 73.4554 7.57498 72.3417 7.57498C71.3975 7.57498 70.3565 8.37498 70.3565 9.67498V12C70.3565 12.525 71.228 13.65 72.3417 13.65C73.4554 13.65 74.327 12.625 74.327 11.475V9.67498ZM70.3565 0.774976V7.22498C70.7438 6.42498 71.6154 5.67498 72.8986 5.67498C74.8354 5.67498 76.3849 7.49998 76.3849 9.67498V11.55C76.3849 13.65 74.787 15.6 72.9712 15.6C71.7607 15.6 70.7196 14.85 70.2596 14V14.675C70.2596 15.025 69.8238 15.35 69.3154 15.35C68.7101 15.35 68.3228 15 68.3228 14.675V0.774976C68.3228 0.374976 68.7101 0.0999756 69.3154 0.0999756C69.9207 0.0999756 70.3565 0.374976 70.3565 0.774976Z" fill="white"/>
<path fill-rule="evenodd" clip-rule="evenodd" d="M58.7592 6.95002C58.7107 6.90002 58.7107 6.77502 58.7107 6.67502C58.7107 6.10002 59.5339 5.65002 60.0423 5.65002C60.3086 5.65002 60.5992 5.77502 60.6476 6.05002L63.1413 12.6L65.2476 6.05002C65.3687 5.77502 65.5866 5.65002 65.8529 5.65002C66.3613 5.65002 67.2329 6.10002 67.2329 6.67502C67.2329 6.72502 67.2329 6.85002 67.1845 6.90002L64.255 14.825C63.3834 17.225 62.4392 19.9 59.6307 19.9C59.0739 19.9 58.6865 19.775 58.6865 19C58.6865 18.475 58.856 18.1 59.2434 18.1C60.236 18.1 61.7855 17.075 62.0518 14.8L58.7592 6.95002Z" fill="white"/>
<path fill-rule="evenodd" clip-rule="evenodd" d="M55.7334 9.00003C55.7334 7.92503 55.1281 7.07503 54.0871 7.07503C53.046 7.07503 52.4408 7.92503 52.4408 9.00003V9.57503C52.4408 10.725 53.046 11.575 54.1597 11.575C55.2008 11.575 55.806 10.725 55.806 9.57503V9.00003H55.7334ZM53.2397 15.425C52.5134 15.7 51.9081 16.175 51.9081 16.975C51.9081 17.95 52.8523 18.575 54.1113 18.575C55.3702 18.575 56.266 17.95 56.266 16.975C56.2902 15.6 54.4502 15.475 53.2397 15.425ZM52.6829 12.7C52.465 12.825 52.2955 12.975 52.2955 13.275C52.2955 14.75 58.2513 13.15 58.2513 16.925C58.2513 19.025 56.3871 20 54.1113 20C51.7871 20 49.9229 18.975 49.9229 17.2C49.9229 16.125 50.5765 15.425 51.4239 15.025C50.8671 14.8 50.4797 14.4 50.4797 13.725C50.4797 12.975 50.8671 12.575 51.4723 12.175C50.746 11.6 50.3102 10.7 50.3102 9.60003V9.02503C50.3102 7.10003 51.7386 5.72502 53.9418 5.72502C54.8134 5.72502 55.6608 5.95002 56.1934 6.40003C56.5808 5.42502 57.065 5.02502 57.4524 5.02502C58.0092 5.02502 58.2755 5.42502 58.2755 5.77502C58.2755 6.00002 58.106 6.17502 57.9366 6.30002C57.6703 6.42502 57.2829 6.65003 56.9439 7.10003C57.3313 7.62503 57.5492 8.30003 57.5492 9.02503V9.60003C57.5492 11.525 55.9997 12.95 53.845 12.95C53.5302 12.925 53.0702 12.875 52.6829 12.7Z" fill="white"/>
<path fill-rule="evenodd" clip-rule="evenodd" d="M48.3243 7.57505C47.1138 7.57505 45.9517 8.72505 45.9517 10.5501V14.7001C45.9517 15.0501 45.4432 15.3751 44.9106 15.3751C44.3053 15.3751 43.918 15.0251 43.918 14.7001V6.47505C43.918 6.07505 44.3053 5.80005 44.9106 5.80005C45.419 5.80005 45.8548 6.07505 45.8548 6.47505V7.37505C46.2422 6.52505 47.1864 5.67505 48.3485 5.67505H48.9538C49.3412 5.67505 49.7285 6.07505 49.7285 6.57505C49.7285 7.10005 49.3412 7.55005 48.9538 7.55005H48.3243V7.57505Z" fill="white"/>
<path fill-rule="evenodd" clip-rule="evenodd" d="M39.7777 9.84996C40.3346 9.84996 40.504 9.72496 40.504 9.22496C40.504 8.14996 39.6325 7.29996 38.5188 7.29996C37.4051 7.29996 36.5335 8.09996 36.5335 9.17496V9.79996H39.7777V9.84996ZM42.4167 9.44996C42.4167 11.1 41.5451 11.225 40.6493 11.225H36.5093V11.675C36.5093 13.05 37.5503 13.9 39.0514 13.9C40.4314 13.9 40.9156 13.15 41.424 13.15C41.9325 13.15 42.2472 13.725 42.2472 14.125C42.2472 14.75 40.9883 15.675 39.003 15.675C36.364 15.675 34.4756 14.075 34.4756 11.625V9.69996C34.4756 7.59996 36.2914 5.77496 38.5672 5.77496C40.6735 5.67496 42.4167 7.22496 42.4167 9.44996Z" fill="white"/>
<path fill-rule="evenodd" clip-rule="evenodd" d="M27.043 14.7001C27.043 15.0501 26.5345 15.3751 26.0019 15.3751C25.3966 15.3751 25.0093 15.0251 25.0093 14.7001V6.47505C25.0093 6.07505 25.4451 5.80005 26.0019 5.80005C26.5103 5.80005 26.9461 6.07505 26.9461 6.47505V7.22505C27.3335 6.42505 28.2777 5.67505 29.5851 5.67505C31.4009 5.67505 32.9988 7.50005 32.9988 9.67505V14.7001C32.9988 15.1501 32.4904 15.3751 31.9577 15.3751C31.4493 15.3751 30.9167 15.1501 30.9167 14.7001V9.67505C30.9167 8.65005 30.0451 7.57505 28.9314 7.57505C27.9872 7.57505 27.0672 8.37505 27.0672 9.67505V14.7001H27.043Z" fill="white"/>
<path fill-rule="evenodd" clip-rule="evenodd" d="M20.8453 9.84996C21.4021 9.84996 21.5716 9.72496 21.5716 9.22496C21.5716 8.14996 20.7 7.29996 19.5863 7.29996C18.5453 7.29996 17.6011 8.09996 17.6011 9.17496V9.79996H20.8453V9.84996ZM23.5085 9.44996C23.5085 11.1 22.6369 11.225 21.7411 11.225H17.6011V11.675C17.6011 13.05 18.6421 13.9 20.1432 13.9C21.5232 13.9 22.0074 13.15 22.5158 13.15C23.0243 13.15 23.339 13.725 23.339 14.125C23.339 14.75 22.08 15.675 20.0948 15.675C17.4558 15.675 15.5674 14.075 15.5674 11.625V9.69996C15.5674 7.59996 17.3832 5.77496 19.659 5.77496C21.7411 5.67496 23.5085 7.22496 23.5085 9.44996Z" fill="white"/>
<path fill-rule="evenodd" clip-rule="evenodd" d="M3.97055 10.825V7.85L8.37689 7.9V11.225C8.32846 11.675 8.25583 12.075 7.94109 12.375C7.60215 12.65 7.21477 12.825 6.77898 12.775L5.27792 12.65C4.45476 12.525 3.92213 11.775 3.97055 10.825ZM5.13266 15.25C5.13266 16.225 6.51267 18.775 6.51267 18.775L8.54636 17.125C8.03794 16.375 7.82004 15.575 7.77162 15.25C8.49794 15.075 9.15163 14.8 9.70847 14.275C10.4832 13.6 11.0401 12.625 11.0401 11.55V7.9H11.3064C12.0327 7.9 12.5653 7.325 12.5653 6.6C12.5653 5.875 12.0085 5.3 11.3064 5.3H9.49058V1.025C9.49058 0.45 8.88531 0.05 8.15899 0.05C7.43267 0.05 6.8274 0.5 6.8274 1.025V5.225H5.49582V1.025C5.49582 0.45 4.93897 0 4.23686 0C3.51054 0 2.90528 0.45 2.90528 0.975V5.2H1.25895C0.532634 5.2 0 5.775 0 6.5C0 7.225 0.556845 7.8 1.25895 7.8H1.38001V11.8C1.38001 11.925 1.38001 12.025 1.42843 12.075C1.76738 13.9 3.31686 15.15 5.13266 15.25Z" fill="#FFD125"/>
<path fill-rule="evenodd" clip-rule="evenodd" d="M4.01889 10.825V7.85001L8.42522 7.90001V11.225C8.3768 11.675 8.30417 12.075 7.98943 12.375C7.65048 12.65 7.26311 12.825 6.82732 12.775L5.32626 12.65C4.45468 12.525 3.92204 11.775 4.01889 10.825ZM5.13257 15.25C6.29469 15.375 6.89995 15.425 7.72311 15.3C8.44943 15.125 9.0547 14.85 9.65996 14.325C10.4347 13.65 10.9916 12.675 10.9916 11.6V7.97501H11.2579C11.9842 7.97501 12.5168 7.40001 12.5168 6.67501C12.5168 5.95001 11.96 5.37501 11.2579 5.37501H9.44207V1.07501C9.44207 0.500008 8.8368 0.100008 8.18312 0.100008C7.4568 0.100008 6.85153 0.550008 6.85153 1.07501V5.30001H5.51995V1.07501C5.51995 0.500008 4.9631 0.100008 4.26099 0.100008C3.53467 -0.0249918 3.00204 0.450008 3.00204 0.950009V5.17501H1.30729C0.580974 5.17501 0.0483398 5.75001 0.0483398 6.47501C0.0483398 7.20001 0.605185 7.77501 1.30729 7.77501H1.42835V11.775C1.42835 11.9 1.47677 12 1.47677 12.05C1.81572 13.9 3.3652 15.15 5.13257 15.25Z" fill="#FFD125"/>
<path fill-rule="evenodd" clip-rule="evenodd" d="M4.01925 8.87496V7.27496H1.42871V8.42496L4.01925 8.87496Z" fill="#FFC41B"/>
<path fill-rule="evenodd" clip-rule="evenodd" d="M10.9675 9.32498V7.22498H8.37695V8.87498L10.9675 9.32498Z" fill="#FFC41B"/>
<path fill-rule="evenodd" clip-rule="evenodd" d="M5.13274 15.2501C5.13274 15.4751 5.18116 15.7751 5.30221 16.0501L8.32854 16.8001C7.98959 16.1751 7.7717 15.4251 7.72328 15.2501C7.60222 14.7001 4.84221 14.7501 5.13274 15.2501Z" fill="#FFC41B"/>
<path fill-rule="evenodd" clip-rule="evenodd" d="M10.9674 7.90005H11.2337C11.9601 7.90005 12.4927 7.32505 12.4927 6.60005C12.4927 5.87505 11.9359 5.30005 11.2337 5.30005L1.25895 5.17505C0.532634 5.17505 0 5.75005 0 6.47505C0 7.20005 0.556845 7.77505 1.25895 7.77505H1.38001L10.9674 7.90005Z" fill="#FFD125"/>
</svg>
