<svg id="Layer_1" data-name="Layer 1" xmlns="http://www.w3.org/2000/svg" viewBox="0 0 200 130"><defs><style>.cls-1{fill:#fff;}.cls-2{fill:#ffd633;}.cls-3{fill:#f2f2f2;}.cls-4{fill:#ffe3e3;}.cls-5{fill:#d9f7ff;}.cls-6{fill:#e3ffe3;}.cls-7{fill:#89d977;}.cls-8{fill:#9c8b75;}.cls-9{fill:#b3b3b3;}.cls-10{fill:#d95959;}.cls-11{fill:#8dd8f8;}</style></defs><title>littleShade</title><rect class="cls-1" width="200" height="130"/><path class="cls-2" d="M90.5,35.5a11.75,11.75,0,1,1,11.75-11.75A11.76,11.76,0,0,1,90.5,35.5Zm0-18.5a6.75,6.75,0,1,0,6.75,6.75A6.76,6.76,0,0,0,90.5,17Z"/><path class="cls-2" d="M81.25,26.25H72a2.5,2.5,0,0,1,0-5h9.25a2.5,2.5,0,0,1,0,5Z"/><path class="cls-2" d="M109,26.25H99.75a2.5,2.5,0,0,1,0-5H109a2.5,2.5,0,0,1,0,5Z"/><path class="cls-2" d="M90.5,44.75a2.5,2.5,0,0,1-2.5-2.5V33a2.5,2.5,0,0,1,5,0v9.25A2.5,2.5,0,0,1,90.5,44.75Z"/><path class="cls-2" d="M90.5,17A2.5,2.5,0,0,1,88,14.5V5.25a2.5,2.5,0,0,1,5,0V14.5A2.5,2.5,0,0,1,90.5,17Z"/><path class="cls-2" d="M103.58,39.33a2.49,2.49,0,0,1-1.77-.73l-6.54-6.54a2.5,2.5,0,1,1,3.54-3.54l6.54,6.54a2.5,2.5,0,0,1-1.77,4.27Z"/><path class="cls-2" d="M84,19.71A2.49,2.49,0,0,1,82.19,19l-6.54-6.54A2.5,2.5,0,0,1,79.19,8.9l6.54,6.54a2.52,2.52,0,0,1,0,3.54A2.49,2.49,0,0,1,84,19.71Z"/><path class="cls-2" d="M97,19.71A2.49,2.49,0,0,1,95.27,19a2.52,2.52,0,0,1,0-3.54l6.54-6.54a2.5,2.5,0,0,1,3.54,3.54L98.81,19A2.49,2.49,0,0,1,97,19.71Z"/><path class="cls-2" d="M77.42,39.33a2.5,2.5,0,0,1-1.77-4.27l6.54-6.54a2.5,2.5,0,1,1,3.54,3.54L79.19,38.6A2.49,2.49,0,0,1,77.42,39.33Z"/><polygon class="cls-3" points="32 66.25 32 74.25 78 57.25 122 74.25 122 66.25 78 47.25 32 66.25"/><polygon class="cls-3" points="48 48.25 38 53.25 38 32.25 48 32.25 48 48.25"/><path class="cls-4" d="M60.5,71.25h0A12.5,12.5,0,0,1,73,83.75v29.5a0,0,0,0,1,0,0H48a0,0,0,0,1,0,0V83.75A12.5,12.5,0,0,1,60.5,71.25Z"/><rect class="cls-5" x="82" y="72.25" width="31" height="25"/><path class="cls-6" d="M104,47.25s2-39,34-40,34,37,34,46-5,32-29,40v30H132v-30l-9-5,.5-21.5,4,1v-10Z"/><path class="cls-7" d="M142.5,125.25h-10a2.5,2.5,0,0,1-2.5-2.5V92.32h5v27.93h5V92.32h5v30.43A2.5,2.5,0,0,1,142.5,125.25Z"/><path class="cls-7" d="M137.5,95.25a32,32,0,0,1-5.42-.47,32.62,32.62,0,0,1-10.83-4l2.5-4.33a28.07,28.07,0,0,0,9.18,3.37,27,27,0,0,0,9.15,0C158,87.09,170,70.06,170,50.25c0-22.06-14.58-40-32.5-40-17.18,0-31.44,16.52-32.44,37.62l-5-.24C101.2,23.87,117.64,5.25,137.5,5.25c20.68,0,37.5,20.19,37.5,45,0,22.21-13.79,41.35-32.07,44.53A32.21,32.21,0,0,1,137.5,95.25Z"/><path class="cls-8" d="M40.5,53.55h-5V32.25a2.5,2.5,0,0,1,2.5-2.5H58a2.5,2.5,0,0,1,2.5,2.5v13.3h-5V34.75h-15Z"/><path class="cls-9" d="M122.5,125.25h-90a2.5,2.5,0,0,1-2.5-2.5v-57a2.5,2.5,0,0,1,1.57-2.32l45-18a2.49,2.49,0,0,1,1.86,0l45,18A2.5,2.5,0,0,1,125,65.75v57A2.5,2.5,0,0,1,122.5,125.25Zm-87.5-5h85V67.44l-42.5-17L35,67.44Z"/><path class="cls-8" d="M127.5,70.25a2.52,2.52,0,0,1-.93-.18L77.5,50.44,28.43,70.07A2.5,2.5,0,0,1,25,67.75v-10a2.5,2.5,0,0,1,1.57-2.32l50-20a2.49,2.49,0,0,1,1.86,0l50,20A2.5,2.5,0,0,1,130,57.75v10a2.5,2.5,0,0,1-1.1,2.07A2.53,2.53,0,0,1,127.5,70.25Zm-50-25a2.48,2.48,0,0,1,.93.18L125,64.06V59.44l-47.5-19L30,59.44v4.62L76.57,45.43A2.48,2.48,0,0,1,77.5,45.25Z"/><path class="cls-10" d="M73,114.75H48a2.5,2.5,0,0,1-2.5-2.5V84.75a15,15,0,0,1,30,0v27.5A2.5,2.5,0,0,1,73,114.75Zm-22.5-5h20v-25a10,10,0,0,0-20,0Z"/><path class="cls-9" d="M78,124.75H43a2.5,2.5,0,0,1-2.5-2.5v-10a2.5,2.5,0,0,1,2.5-2.5H78a2.5,2.5,0,0,1,2.5,2.5v10A2.5,2.5,0,0,1,78,124.75Zm-32.5-5h30v-5h-30Z"/><path class="cls-11" d="M113,99.75H82a2.5,2.5,0,0,1-2.5-2.5v-25a2.5,2.5,0,0,1,2.5-2.5h31a2.5,2.5,0,0,1,2.5,2.5v25A2.5,2.5,0,0,1,113,99.75Zm-28.5-5h26v-20h-26Z"/><path class="cls-11" d="M98,99.75a2.5,2.5,0,0,1-2.5-2.5v-24a2.5,2.5,0,0,1,5,0v24A2.5,2.5,0,0,1,98,99.75Z"/><circle class="cls-10" cx="66" cy="95.25" r="2.5"/></svg>