<svg id="Layer_1" data-name="Layer 1" xmlns="http://www.w3.org/2000/svg" viewBox="0 0 200 130"><defs><style>.cls-1{fill:#fff;}.cls-2{fill:#f2f2f2;}.cls-3{fill:#ffe3e3;}.cls-4{fill:#d9f7ff;}.cls-5{fill:#b3b3b3;}.cls-6{fill:#9c8b75;}.cls-7{fill:#d95959;}.cls-8{fill:#8dd8f8;}.cls-9{fill:#ffd633;}</style></defs><title>noShade</title><rect class="cls-1" width="200" height="130"/><polygon class="cls-2" points="54.5 66.25 54.5 74.25 100.5 57.25 144.5 74.25 144.5 66.25 100.5 47.25 54.5 66.25"/><polygon class="cls-2" points="70.5 48.25 60.5 53.25 60.5 32.25 70.5 32.25 70.5 48.25"/><path class="cls-3" d="M83,71.25h0a12.5,12.5,0,0,1,12.5,12.5v29.5a0,0,0,0,1,0,0h-25a0,0,0,0,1,0,0V83.75A12.5,12.5,0,0,1,83,71.25Z"/><rect class="cls-4" x="104.5" y="72.25" width="31" height="25"/><path class="cls-5" d="M145,125.25H55a2.5,2.5,0,0,1-2.5-2.5v-57a2.5,2.5,0,0,1,1.57-2.32l45-18a2.49,2.49,0,0,1,1.86,0l45,18a2.5,2.5,0,0,1,1.57,2.32v57A2.5,2.5,0,0,1,145,125.25Zm-87.5-5h85V67.44l-42.5-17-42.5,17Z"/><path class="cls-6" d="M63,53.55H58V32.25a2.5,2.5,0,0,1,2.5-2.5h20a2.5,2.5,0,0,1,2.5,2.5v13.3H78V34.75H63Z"/><path class="cls-6" d="M150,70.25a2.52,2.52,0,0,1-.93-.18L100,50.44,50.93,70.07a2.5,2.5,0,0,1-3.43-2.32v-10a2.5,2.5,0,0,1,1.57-2.32l50-20a2.49,2.49,0,0,1,1.86,0l50,20a2.5,2.5,0,0,1,1.57,2.32v10a2.5,2.5,0,0,1-1.1,2.07A2.53,2.53,0,0,1,150,70.25Zm-50-25a2.48,2.48,0,0,1,.93.18L147.5,64.06V59.44l-47.5-19-47.5,19v4.62L99.07,45.43A2.48,2.48,0,0,1,100,45.25Z"/><path class="cls-7" d="M95.5,114.75h-25a2.5,2.5,0,0,1-2.5-2.5V84.75a15,15,0,0,1,30,0v27.5A2.5,2.5,0,0,1,95.5,114.75Zm-22.5-5H93v-25a10,10,0,0,0-20,0Z"/><path class="cls-5" d="M100.5,124.75h-35a2.5,2.5,0,0,1-2.5-2.5v-10a2.5,2.5,0,0,1,2.5-2.5h35a2.5,2.5,0,0,1,2.5,2.5v10A2.5,2.5,0,0,1,100.5,124.75Zm-32.5-5H98v-5H68Z"/><path class="cls-8" d="M135.5,99.75h-31a2.5,2.5,0,0,1-2.5-2.5v-25a2.5,2.5,0,0,1,2.5-2.5h31a2.5,2.5,0,0,1,2.5,2.5v25A2.5,2.5,0,0,1,135.5,99.75Zm-28.5-5h26v-20H107Z"/><path class="cls-8" d="M120.5,99.75a2.5,2.5,0,0,1-2.5-2.5v-24a2.5,2.5,0,0,1,5,0v24A2.5,2.5,0,0,1,120.5,99.75Z"/><circle class="cls-7" cx="88.5" cy="95.25" r="2.5"/><path class="cls-9" d="M131.5,35.5a11.75,11.75,0,1,1,11.75-11.75A11.76,11.76,0,0,1,131.5,35.5Zm0-18.5a6.75,6.75,0,1,0,6.75,6.75A6.76,6.76,0,0,0,131.5,17Z"/><path class="cls-9" d="M122.25,26.25H113a2.5,2.5,0,0,1,0-5h9.25a2.5,2.5,0,0,1,0,5Z"/><path class="cls-9" d="M150,26.25h-9.25a2.5,2.5,0,0,1,0-5H150a2.5,2.5,0,0,1,0,5Z"/><path class="cls-9" d="M131.5,44.75a2.5,2.5,0,0,1-2.5-2.5V33a2.5,2.5,0,0,1,5,0v9.25A2.5,2.5,0,0,1,131.5,44.75Z"/><path class="cls-9" d="M131.5,17a2.5,2.5,0,0,1-2.5-2.5V5.25a2.5,2.5,0,0,1,5,0V14.5A2.5,2.5,0,0,1,131.5,17Z"/><path class="cls-9" d="M144.58,39.33a2.49,2.49,0,0,1-1.77-.73l-6.54-6.54a2.5,2.5,0,0,1,3.54-3.54l6.54,6.54a2.5,2.5,0,0,1-1.77,4.27Z"/><path class="cls-9" d="M125,19.71a2.49,2.49,0,0,1-1.77-.73l-6.54-6.54a2.5,2.5,0,0,1,3.54-3.54l6.54,6.54a2.52,2.52,0,0,1,0,3.54A2.49,2.49,0,0,1,125,19.71Z"/><path class="cls-9" d="M138,19.71a2.49,2.49,0,0,1-1.77-.73,2.52,2.52,0,0,1,0-3.54l6.54-6.54a2.5,2.5,0,0,1,3.54,3.54L139.81,19A2.49,2.49,0,0,1,138,19.71Z"/><path class="cls-9" d="M118.42,39.33a2.5,2.5,0,0,1-1.77-4.27l6.54-6.54a2.5,2.5,0,1,1,3.54,3.54l-6.54,6.54A2.49,2.49,0,0,1,118.42,39.33Z"/></svg>