<svg width="500" height="127" viewBox="0 0 500 127" fill="none" xmlns="http://www.w3.org/2000/svg">
<g opacity="0.4">
<path d="M250.227 0L238.943 32.5229L204.541 33.2271L231.958 54.0135L222.002 86.9537L250.227 67.2887L278.218 86.9537L268.497 54.0135L295.914 33.2271L261.512 32.5229L250.227 0Z" fill="#2893EE"/>
<path d="M121.67 39.1713L114.744 59.0058L93.6309 59.4353L110.458 72.1122L104.347 92.2013L121.67 80.2083L138.849 92.2013L132.883 72.1122L149.709 59.4353L128.596 59.0058L121.67 39.1713Z" fill="#2893EE"/>
<path d="M21.3636 86.7752L16.0867 101.82L0 102.146L12.8206 111.762L8.16522 127L21.3636 117.903L34.4524 127L29.9066 111.762L42.7273 102.146L26.6406 101.82L21.3636 86.7752Z" fill="#2893EE"/>
<path d="M478.637 86.7752L473.36 101.82L457.273 102.146L470.094 111.762L465.438 127L478.637 117.903L491.725 127L487.18 111.762L500 102.146L483.914 101.82L478.637 86.7752Z" fill="#2893EE"/>
<path d="M378.783 39.1713L371.858 59.0058L350.744 59.4353L367.571 72.1122L361.461 92.2013L378.783 80.2083L395.962 92.2013L389.996 72.1122L406.823 59.4353L385.709 59.0058L378.783 39.1713Z" fill="#2893EE"/>
</g>
</svg>
