<svg width="449" height="218" viewBox="0 0 449 218" fill="none" xmlns="http://www.w3.org/2000/svg">
<path d="M-40.7709 27.4532C1.51465 28.7551 42.381 24.7046 82.2746 10.0225C107.434 0.764935 131.306 -12.0385 157.137 -19.4683C189.871 -28.8808 221.041 -28.7242 248.98 -8.54505C258.193 -1.89204 267.001 5.27299 277.147 10.5183C284.564 14.3497 297.97 22.0861 305.604 15.0288C312.009 9.11084 312.882 -3.37759 315.001 -11.2565C319.931 -29.6195 328.042 -44.9712 341.871 -58.2127C339.463 -58.5402 338.276 -58.7035 335.947 -59.0267C322.133 -46.6135 313.79 -32.0089 308.43 -14.4048C306.19 -7.0581 304.991 6.25604 298.164 11.1796C290.093 16.9982 276.504 8.46411 269.238 4.47104C259.528 -0.860469 251.035 -7.92869 242.166 -14.4872C214.343 -35.0578 184.021 -34.88 150.731 -27.253C125.874 -21.5604 102.41 -11.2575 78.1038 -3.74471C38.4384 8.51571 -1.94956 12.1549 -43.3503 12.0314C-42.504 17.1754 -41.6442 22.316 -40.7709 27.4532Z" fill="white"/>
<path d="M-35.4705 57.9894C9.49275 62.0863 51.5037 56.3317 92.4216 36.8064C118.597 24.3139 142.686 7.42331 169.732 -3.22952C200.883 -15.5034 233.499 -15.711 261.564 3.13518C273.711 11.2937 301.966 35.3301 317.081 23.4229C325.051 17.1483 325.631 2.72258 327.765 -6.28503C332.363 -25.6797 340.295 -42.0632 354.209 -56.5514C351.691 -56.8843 350.44 -57.0552 347.97 -57.3859C333.888 -43.237 325.979 -26.9925 321.25 -7.79369C319.24 0.362895 318.532 13.4865 311.571 19.3732C303.382 26.2939 289.719 18.8461 281.855 14.8129C272.396 9.96166 264.114 3.38839 255.437 -2.67512C227.941 -21.8745 196.71 -22.4972 165.081 -12C137.992 -3.01379 113.526 12.3319 87.3223 23.4256C46.8671 40.5513 5.54343 45.3986 -38.1381 42.7661C-37.256 47.8439 -36.3649 52.9194 -35.4648 57.9927L-35.4705 57.9894Z" fill="white"/>
<path d="M-30.0209 88.3022C17.217 95.7151 59.9648 87.6253 101.451 64.0007C128.512 48.592 152.731 28.361 180.522 14.2363C209.993 -0.740729 244.294 -2.58858 272.996 14.6959C286.581 22.8781 312.252 42.4324 328.138 30.0829C336.64 23.4743 337.449 9.21948 339.628 -0.423762C344.336 -21.2522 352.362 -38.9844 366.954 -54.8685C364.386 -55.208 363.103 -55.3755 360.554 -55.715C345.913 -40.0808 338.083 -22.4644 333.423 -1.80086C331.402 7.16391 330.588 20.8482 322.581 26.9603C307.013 38.8529 280.254 17.0705 267.409 8.90682C239.245 -8.98976 206.145 -8.35514 175.91 5.08908C147.971 17.5115 123.488 36.5315 96.4266 50.6344C55.2951 72.0725 13.1999 78.8349 -32.7601 73.1542C-31.8523 78.2017 -30.9388 83.2525 -30.022 88.2977L-30.0209 88.3022Z" fill="white"/>
<path d="M-24.4731 118.629C24.7967 129.795 68.5466 118.493 110.318 91.2171C139.157 72.3812 164.295 48.0581 193.954 30.4836C221.059 14.4202 255.245 11.51 283.586 26.3496C298.422 34.1165 322.029 48.9577 338.302 36.7015C347.422 29.837 348.656 15.6227 350.994 5.38172C356.065 -16.8632 364.406 -35.9714 379.777 -53.1765C377.224 -53.5149 375.945 -53.6835 373.377 -54.023C358.503 -37.5913 350.268 -19.1962 345.427 2.22325C343.159 12.2512 342.118 26.8125 333.097 33.4996C316.905 45.5113 292.588 28.5185 278.379 20.4935C249.583 4.23369 215.013 6.92617 186.581 22.7661C156.681 39.4243 131.09 62.8036 101.605 80.196C61.1562 104.055 19.0183 112.31 -27.2551 103.444C-26.3293 108.506 -25.4001 113.562 -24.4698 118.623L-24.4731 118.629Z" fill="white"/>
<path d="M-18.8665 149.202C8.08159 157.263 34.337 158.558 61.3348 149.719C81.8694 142.994 100.641 131.748 118.029 119.106C148.559 96.9128 174.463 68.8408 205.523 47.4007C231.164 29.6996 264.734 25.3908 293.616 38.2923C309.361 45.3297 331.131 55.6961 347.499 44.1974C357.712 37.0289 359.423 22.2655 362.041 11.0531C367.551 -12.5322 376.236 -32.9997 392.353 -51.5033C389.883 -51.834 388.633 -52.0004 386.114 -52.3378C370.803 -34.9905 362.2 -15.8593 356.955 6.43424C354.361 17.4593 352.99 33.0571 342.943 40.3316C326.556 52.1924 304.004 39.6925 288.649 32.2709C260.085 18.4597 226.086 22.1092 199.784 38.9712C168.122 59.2716 141.713 86.7652 110.446 107.705C69.6058 135.056 26.678 146.57 -21.677 133.867C-20.7387 138.978 -19.8015 144.085 -18.8677 149.198L-18.8665 149.202Z" fill="white"/>
<path d="M-13.2505 180.25C86.2147 217.259 150.159 115.77 217.969 62.9194C228.704 54.5516 240.545 46.6296 254.441 45.4059C261.799 44.7572 269.409 44.9128 276.771 45.3356C285.939 45.861 294.833 47.3755 303.395 50.7324C319.615 57.0827 339.751 63.876 356.1 53.2976C367.656 45.819 369.839 30.1646 372.678 17.8432C378.519 -7.53179 387.436 -29.6878 404.38 -49.8678C402.05 -50.191 400.863 -50.3543 398.456 -50.6818C382.344 -31.8745 373.346 -11.0039 367.736 12.8496C364.865 25.0455 363.059 41.1721 351.557 48.6943C335.193 59.4005 314.48 51.0606 298.519 44.435C290.27 41.0091 281.685 39.245 272.788 38.5846C249.486 36.8502 231.67 40.8064 212.472 54.7673C179.23 78.9405 152.041 110.506 119.085 135.131C101.808 148.041 83.0011 159.601 62.3925 166.372C35.8289 175.097 10.1901 173.447 -16.0469 164.649C-15.1062 169.846 -14.1688 175.048 -13.2415 180.248L-13.2505 180.25Z" fill="white"/>
<path d="M-43.3463 12.03C-1.94558 12.1535 38.4424 8.51431 78.1077 -3.74611C102.41 -11.2577 125.878 -21.5618 150.735 -27.2544C184.026 -34.8769 214.342 -35.0581 242.17 -14.4886C251.039 -7.93007 259.531 -0.866338 269.242 4.46966C276.508 8.46272 290.098 17.0013 298.168 11.1782C305 6.25352 306.199 -7.06061 308.433 -14.4062C313.794 -32.0103 322.134 -46.6092 335.95 -59.028C333.621 -59.3512 332.478 -59.5112 330.25 -59.8268C316.685 -48.6392 307.91 -35.2364 302.021 -18.7576C299.488 -11.6703 297.754 1.68316 290.894 6.32436C283.202 11.5279 269.814 2.95743 263.102 -0.712941C252.966 -6.25646 244.146 -13.6378 234.95 -20.543C225.631 -27.541 215.847 -33.6357 204.392 -36.4111C185.203 -41.06 163.475 -37.9626 144.287 -34.771C119.771 -30.6944 96.1663 -22.782 72.0524 -16.9622C33.2876 -7.59784 -6.1001 -4.4395 -45.871 -3.53437C-45.0414 1.65676 -44.2029 6.84563 -43.3463 12.03Z" fill="#DC2B2B"/>
<path d="M-38.1396 42.7617C5.5419 45.3942 46.8701 40.5457 87.3207 23.4212C113.524 12.3275 137.991 -3.01372 165.08 -12.0044C196.71 -22.4971 227.941 -21.8744 255.435 -2.67953C264.117 3.38285 272.393 9.95277 281.854 14.8085C289.718 18.8417 303.38 26.2895 311.569 19.3688C318.531 13.4866 319.239 0.362976 321.249 -7.7981C325.977 -26.9969 333.887 -43.2414 347.968 -57.3903C345.498 -57.721 344.272 -57.8887 341.864 -58.2162C328.036 -44.9746 319.926 -29.6185 314.995 -11.2599C312.88 -3.38216 312.001 9.10292 305.598 15.0254C297.964 22.0827 284.558 14.3462 277.141 10.5149C266.996 5.27403 258.187 -1.89548 248.974 -8.54849C221.031 -28.7265 189.864 -28.8842 157.131 -19.4718C131.303 -12.0475 107.428 0.761501 82.2684 10.0191C42.3748 24.7011 1.5085 28.7516 -40.7771 27.4498C-39.9118 32.5557 -39.033 37.6581 -38.1497 42.7595L-38.1396 42.7617Z" fill="#DC2B2B"/>
<path d="M-32.7597 73.1588C13.2003 78.8395 55.2955 72.0771 96.427 50.639C123.493 36.535 147.971 17.5161 175.911 5.09369C206.141 -8.34941 239.245 -8.98515 267.409 8.91142C280.259 17.0739 307.014 38.8575 322.581 26.9649C330.592 20.8472 331.401 7.16403 333.424 -1.79624C338.082 -22.4643 345.913 -40.0762 360.554 -55.7104C358.001 -56.0487 356.732 -56.2152 354.213 -56.5525C340.299 -42.0643 332.367 -25.6807 327.769 -6.28611C325.634 2.7215 325.05 17.1439 317.085 23.4218C301.968 35.3246 273.719 11.2915 261.567 3.1341C233.501 -15.7166 200.886 -15.5089 169.736 -3.23062C142.687 7.42783 118.597 24.3184 92.4256 36.8053C51.5076 56.3306 9.49667 62.0852 -35.4665 57.9883C-34.5699 63.0481 -33.6699 68.1023 -32.7597 73.1588Z" fill="#DC2B2B"/>
<path d="M-27.2587 103.449C19.0136 112.311 61.1527 104.06 101.601 80.2014C131.082 62.81 156.679 39.4341 186.578 22.7715C215.01 6.93152 249.574 4.23569 278.375 20.4988C292.584 28.5238 316.901 45.5121 333.093 33.505C342.113 26.8133 343.156 12.2565 345.424 2.2286C350.265 -19.1909 358.499 -37.586 373.374 -54.0176C370.806 -54.3571 369.522 -54.5246 366.955 -54.8641C352.363 -38.9756 344.337 -21.2478 339.628 -0.419359C337.449 9.22388 336.641 23.4787 328.139 30.0873C312.252 42.4368 286.586 22.8814 272.996 14.7003C244.294 -2.58865 209.988 -0.739666 180.523 14.2407C152.732 28.3654 128.512 48.5964 101.451 64.0052C59.9653 87.6297 17.2174 95.7195 -30.0204 88.3066C-29.1024 93.3563 -28.18 98.4049 -27.2575 103.453L-27.2587 103.449Z" fill="#DC2B2B"/>
<path d="M-21.6717 133.87C26.6777 146.57 69.6111 135.059 110.451 107.708C141.719 86.7684 168.126 59.2704 199.789 38.9744C226.092 22.1125 260.09 18.463 288.654 32.2742C304.009 39.6958 326.561 52.1957 342.948 40.3349C352.995 33.0603 354.367 17.4626 356.96 6.43751C362.205 -15.856 370.808 -34.9872 386.119 -52.3345C383.6 -52.6674 382.331 -52.8383 379.777 -53.1766C364.402 -35.9705 356.065 -16.8634 350.994 5.38157C348.66 15.6215 347.425 29.8313 338.302 36.7013C322.028 48.953 298.418 34.1174 283.587 26.3494C255.245 11.5099 221.064 14.4189 193.954 30.4835C164.295 48.0579 139.158 72.3856 110.318 91.2169C68.548 118.497 24.7969 129.795 -24.4729 118.628C-23.5381 123.707 -22.6077 128.787 -21.6717 133.87Z" fill="#DC2B2B"/>
<path d="M-16.0562 164.652C10.1762 173.45 35.8151 175.101 62.3832 166.374C82.9929 159.608 101.798 148.043 119.076 135.133C152.036 110.507 179.225 78.9414 212.463 54.7694C231.661 40.8085 249.477 36.8522 272.779 38.5867C281.676 39.2471 290.26 41.0112 298.51 44.4371C314.475 51.0615 335.184 59.4026 351.548 48.6964C363.049 41.1697 364.86 25.0464 367.726 12.8517C373.336 -11.0018 382.335 -31.8724 398.446 -50.6797C396.039 -51.0072 394.818 -51.1715 392.343 -51.5055C376.226 -33.002 367.541 -12.5345 362.03 11.0509C359.413 22.2632 357.701 37.0266 347.489 44.1951C331.115 55.6904 309.35 45.323 293.606 38.2901C264.723 25.3886 231.154 29.6973 205.512 47.3984C174.453 68.8385 148.553 96.9093 118.018 119.104C100.63 131.746 81.8589 142.992 61.3243 149.716C34.331 158.554 8.07113 157.26 -18.877 149.2C-17.9386 154.349 -17.0002 159.499 -16.0663 164.649L-16.0562 164.652Z" fill="#DC2B2B"/>
<path d="M-10.4542 196.022C89.3953 236.819 157.749 125.596 223.366 70.8866C233.451 62.4777 244.914 53.7406 258.345 52.0762C266.399 51.0808 275.13 51.5735 283.215 52.1191C291.82 52.7006 300.217 54.102 308.283 57.1977C324.69 63.4916 344.443 69.0516 360.722 58.3904C373.258 50.1789 375.319 33.0586 378.327 19.6698C384.096 -5.99202 393.24 -28.5151 410.071 -49.067C407.839 -49.3814 406.695 -49.5414 404.37 -49.8657C387.43 -29.6913 378.514 -7.53079 372.668 17.8453C369.829 30.1667 367.647 45.8212 356.09 53.2997C339.743 63.8826 319.607 57.0893 303.385 50.7345C294.819 47.3788 285.93 45.8631 276.762 45.3378C269.399 44.9149 261.79 44.7593 254.431 45.408C240.535 46.6318 228.695 54.5537 217.959 62.9215C150.159 115.77 86.2142 217.259 -13.2509 180.25C-12.3089 185.508 -11.3771 190.764 -10.453 196.027L-10.4542 196.022Z" fill="#DC2B2B"/>
<path d="M149.068 47.8298C124.943 65.3728 100.618 83.1662 72.9154 94.7329C40.6229 108.214 6.92101 110.545 -27.2549 103.443C-33.7699 67.8369 -40.1334 32.2063 -45.8708 -3.53429C-13.8611 -4.09922 18.1004 -6.15815 49.6045 -12.1055C70.3383 -16.0201 90.564 -21.8513 110.923 -27.3063C124.34 -2.61894 136.924 22.4928 149.063 47.8309L149.068 47.8298Z" fill="#0160B0"/>
<path d="M5.77007 2.37386C6.47008 0.610267 6.81503 -0.27264 7.49596 -2.03619C8.70837 -0.449522 9.30952 0.342705 10.5141 1.91706C12.6515 1.96941 13.7034 1.99506 15.7835 2.02849C14.5216 3.4952 13.8856 4.22744 12.5888 5.68862C13.2393 7.48841 13.5657 8.38325 14.2195 10.1774C12.2199 9.51837 11.2089 9.18214 9.16668 8.50525C7.39984 9.56062 6.50519 10.0816 4.68555 11.1169C4.7713 9.24597 4.81193 8.31107 4.89319 6.44126C3.1193 5.2773 2.22674 4.69197 0.424747 3.51127C2.59478 3.06924 3.66407 2.84265 5.7712 2.37834L5.77007 2.37386Z" fill="#FBFFFF"/>
<path d="M36.1068 -1.48726C36.607 -3.24816 36.8532 -4.12524 37.3377 -5.87266C38.4433 -4.38774 38.9927 -3.6492 40.0993 -2.17887C41.9132 -2.23563 42.8067 -2.27015 44.5779 -2.34476C43.5865 -0.86521 43.083 -0.118691 42.0614 1.37326C42.7128 3.08225 43.0379 3.9345 43.6915 5.6334C41.9482 5.11948 41.0698 4.85469 39.3007 4.31393C37.8551 5.4504 37.1199 6.01698 35.626 7.15131C35.6085 5.30638 35.5953 4.38505 35.5734 2.54126C34.0119 1.50012 33.2295 0.97283 31.6534 -0.0884518C33.4617 -0.639515 34.3546 -0.921746 36.1124 -1.4839L36.1068 -1.48726Z" fill="#FBFFFF"/>
<path d="M61.7946 -6.72657C62.112 -8.39851 62.264 -9.23279 62.5624 -10.8856C63.6204 -9.55081 64.1506 -8.88844 65.2131 -7.57381C66.79 -7.71859 67.5689 -7.79097 69.1131 -7.95137C68.3506 -6.5295 67.9627 -5.81687 67.1688 -4.36803C67.858 -2.81156 68.2021 -2.03557 68.8936 -0.489195C67.3279 -0.866765 66.5383 -1.06338 64.9558 -1.47005C63.7706 -0.322969 63.1668 0.253401 61.9368 1.4118C61.8028 -0.327501 61.7313 -1.19602 61.5907 -2.9241C60.1665 -3.81871 59.4549 -4.2733 58.0284 -5.19593C59.5537 -5.80913 60.3063 -6.11794 61.789 -6.72992L61.7946 -6.72657Z" fill="#FBFFFF"/>
<path d="M9.43111 25.5919C10.1379 23.8361 10.484 22.9577 11.175 21.1964C12.402 22.7651 13.0154 23.5494 14.2357 25.1103C16.4022 25.1458 17.4698 25.1579 19.5847 25.1588C18.3026 26.6401 17.6542 27.3802 16.3362 28.8516C16.9979 30.639 17.3276 31.5282 17.9926 33.31C15.965 32.6723 14.9383 32.3496 12.8737 31.6784C11.0877 32.7338 10.1796 33.2581 8.34424 34.2879C8.42777 32.427 8.47067 31.5011 8.54858 29.6369C6.75225 28.4786 5.85071 27.8955 4.0319 26.7238C6.22328 26.2907 7.30155 26.0619 9.43225 25.5964L9.43111 25.5919Z" fill="#FBFFFF"/>
<path d="M40.3693 21.0691C40.8908 19.279 41.1471 18.3851 41.6506 16.5995C42.7808 18.0496 43.3436 18.7657 44.4737 20.1968C46.3424 20.0547 47.2672 19.9741 49.0955 19.8041C48.0638 21.351 47.5391 22.1267 46.476 23.6815C47.1375 25.3737 47.4705 26.2192 48.1353 27.9058C46.3405 27.4715 45.4375 27.2416 43.6191 26.7704C42.1242 27.9765 41.369 28.5767 39.8337 29.7739C39.8229 27.9178 39.813 26.9908 39.7989 25.1403C38.1983 24.1519 37.3991 23.6527 35.7872 22.6386C37.6459 22.0224 38.5589 21.7065 40.3682 21.0646L40.3693 21.0691Z" fill="#FBFFFF"/>
<path d="M66.9933 14.245C67.3375 12.5091 67.5063 11.6468 67.836 9.92884C68.9242 11.2132 69.4712 11.8475 70.5639 13.1116C72.2078 12.8355 73.0225 12.6969 74.6417 12.3985C73.8289 13.9236 73.4118 14.6912 72.5665 16.2388C73.2658 17.7784 73.6177 18.5477 74.3193 20.0772C72.6921 19.8152 71.8735 19.6736 70.2295 19.3825C68.9828 20.6452 68.3466 21.2822 67.0629 22.5494C66.9367 20.7843 66.8765 19.9034 66.7481 18.1484C65.2791 17.3414 64.5396 16.9272 63.0628 16.0887C64.653 15.3543 65.4379 14.9849 66.9922 14.2405L66.9933 14.245Z" fill="#FBFFFF"/>
<path d="M90.4057 5.98989C90.5964 4.38324 90.6856 3.58386 90.8584 2.00079C91.953 3.10239 92.5009 3.6459 93.6022 4.71721C95.0966 4.35965 95.8382 4.17752 97.3203 3.80877C96.6791 5.23821 96.3517 5.96416 95.6814 7.42953C96.4386 8.78297 96.8195 9.45912 97.5847 10.8058C96.0544 10.6815 95.2875 10.6126 93.7549 10.4602C92.6946 11.7046 92.1605 12.3301 91.0721 13.5958C90.8317 11.9834 90.7144 11.1788 90.4673 9.57767C89.0605 8.94082 88.3627 8.61622 86.957 7.94574C88.3528 7.16022 89.0412 6.76749 90.409 5.98427L90.4057 5.98989Z" fill="#FBFFFF"/>
<path d="M111.705 -2.82848C111.772 -4.26111 111.799 -4.96844 111.85 -6.37302C112.979 -5.45644 113.546 -5.00377 114.686 -4.10403C116.101 -4.48944 116.812 -4.68271 118.222 -5.07147C117.697 -3.78576 117.431 -3.1373 116.887 -1.81344C117.719 -0.655204 118.133 -0.0777606 118.967 1.07038C117.474 1.03675 116.728 1.0149 115.24 0.961087C114.311 2.11993 113.838 2.70609 112.888 3.89412C112.542 2.47026 112.369 1.76562 112.021 0.351854C110.633 -0.137082 109.939 -0.391075 108.552 -0.909159C109.822 -1.68206 110.45 -2.06906 111.705 -2.82848Z" fill="#FBFFFF"/>
<path d="M13.1537 48.6901C13.8672 46.9422 14.2177 46.0626 14.9144 44.3046C16.1582 45.8643 16.775 46.6431 18.0121 48.1949C20.2044 48.2192 21.2933 48.2212 23.4362 48.2007C22.1339 49.6966 21.4721 50.4401 20.1406 51.9148C20.809 53.691 21.1432 54.5791 21.8161 56.3542C19.7593 55.7334 18.7237 55.4129 16.6321 54.7485C14.8237 55.8095 13.9088 56.3261 12.0611 57.3446C12.1424 55.4939 12.1853 54.5679 12.2655 52.7127C10.4557 51.5578 9.53953 50.9736 7.70499 49.7964C9.90988 49.3789 10.9994 49.1568 13.1537 48.6901Z" fill="#FBFFFF"/>
<path d="M44.6572 43.6104C45.1988 41.7866 45.4663 40.8804 45.9944 39.06C47.1492 40.4753 47.7266 41.1734 48.8813 42.5697C50.8015 42.3479 51.7543 42.2269 53.6374 41.9716C52.5655 43.5859 52.0239 44.3896 50.9228 46.0017C51.5955 47.6815 51.9307 48.5169 52.6067 50.1911C50.7672 49.8253 49.8407 49.6346 47.9764 49.2275C46.4401 50.4964 45.6602 51.1315 44.0813 52.3826C44.0772 50.5152 44.0719 49.5871 44.0633 47.7209C42.428 46.7841 41.6097 46.304 39.962 45.337C41.8621 44.658 42.8054 44.3106 44.6606 43.6048L44.6572 43.6104Z" fill="#FBFFFF"/>
<path d="M72.1823 35.2912C72.5601 33.4992 72.7445 32.6043 73.1021 30.8269C74.2206 32.0607 74.781 32.6726 75.9027 33.8817C77.616 33.4833 78.4653 33.274 80.1527 32.8488C79.2885 34.4726 78.8469 35.2941 77.9535 36.9348C78.6629 38.4576 79.0181 39.2213 79.7309 40.7384C78.0411 40.5876 77.1934 40.5009 75.4946 40.3142C74.1865 41.6925 73.5245 42.3788 72.1782 43.7572C72.0655 41.9696 72.0108 41.073 71.8902 39.2922C70.3754 38.5682 69.6124 38.1933 68.0886 37.4334C69.7459 36.5868 70.5633 36.1568 72.1823 35.2912Z" fill="#FBFFFF"/>
<path d="M96.6716 24.9108C96.8992 23.2234 97.0074 22.3858 97.2182 20.7265C98.3407 21.7686 98.9053 22.284 100.031 23.3015C101.597 22.7925 102.377 22.534 103.929 22.0093C103.229 23.5633 102.874 24.3487 102.152 25.9319C102.92 27.273 103.303 27.939 104.074 29.27C102.482 29.2803 101.684 29.2765 100.089 29.2543C98.9639 30.6389 98.3951 31.3351 97.2408 32.7366C97.0195 31.0861 96.9032 30.267 96.6751 28.6276C95.2225 28.0929 94.4934 27.8143 93.0418 27.2459C94.5104 26.3134 95.2367 25.8444 96.6761 24.9097L96.6716 24.9108Z" fill="#FBFFFF"/>
<path d="M119.067 13.6521C119.169 12.1297 119.217 11.3741 119.304 9.88426C120.457 10.747 121.038 11.1727 122.199 12.0096C123.68 11.4649 124.422 11.192 125.897 10.6439C125.319 12.0575 125.027 12.7744 124.43 14.2262C125.264 15.3743 125.681 15.9462 126.517 17.0842C124.973 17.1875 124.197 17.2352 122.652 17.3149C121.66 18.6229 121.155 19.2887 120.142 20.626C119.814 19.1595 119.649 18.4291 119.32 16.9771C117.887 16.5948 117.168 16.3946 115.736 15.9787C117.074 15.0408 117.739 14.5731 119.062 13.6487L119.067 13.6521Z" fill="#FBFFFF"/>
<path d="M16.9132 71.7312C17.6323 69.9866 17.9885 69.1104 18.6908 67.3558C19.9436 68.9132 20.5694 69.6897 21.8188 71.2337C24.038 71.2511 25.1392 71.2453 27.3146 71.2023C25.9922 72.7128 25.3214 73.4586 23.9719 74.9378C24.6493 76.7118 24.988 77.5988 25.6609 79.3738C23.5784 78.7643 22.5337 78.4461 20.4197 77.7873C18.5922 78.8484 17.6717 79.3616 15.8071 80.3701C15.8896 78.5238 15.9325 77.5979 16.0138 75.7471C14.1883 74.5866 13.2665 73.9991 11.4196 72.8107C13.638 72.4089 14.7387 72.1934 16.9087 71.7324L16.9132 71.7312Z" fill="#FBFFFF"/>
<path d="M48.9578 66.1483C49.5207 64.2953 49.7982 63.3722 50.3476 61.5226C51.5225 62.9043 52.1111 63.5901 53.2916 64.956C55.2644 64.659 56.2407 64.4987 58.1797 64.1626C57.0709 65.8386 56.508 66.6715 55.3689 68.3408C56.0483 70.0094 56.388 70.8437 57.0696 72.5022C55.1853 72.2049 54.2331 72.0445 52.3274 71.7002C50.7452 73.0332 49.9485 73.6963 48.3259 75.0013C48.3286 73.1227 48.3311 72.1878 48.3248 70.3115C46.657 69.4163 45.8208 68.9598 44.1406 68.0344C46.0889 67.3003 47.0489 66.9249 48.9533 66.1494L48.9578 66.1483Z" fill="#FBFFFF"/>
<path d="M77.3535 56.399C77.7592 54.5475 77.9604 53.6246 78.3515 51.7911C79.4957 52.9755 80.0728 53.5593 81.2215 54.7235C82.9996 54.2039 83.8813 53.934 85.6358 53.3775C84.7201 55.1001 84.2561 55.9653 83.3102 57.7004C84.0263 59.2119 84.3883 59.9643 85.1066 61.4658C83.3632 61.4238 82.4864 61.3921 80.7272 61.3064C79.3598 62.7902 78.6688 63.5315 77.2677 65.0142C77.1673 63.1998 77.1204 62.2964 77.0121 60.4887C75.4504 59.8433 74.6695 59.511 73.102 58.8241C74.8219 57.8663 75.6684 57.3813 77.3535 56.399Z" fill="#FBFFFF"/>
<path d="M102.889 43.9628C103.151 42.2047 103.278 41.329 103.522 39.59C104.672 40.5727 105.249 41.0612 106.403 42.0192C108.041 41.3631 108.855 41.0295 110.474 40.3545C109.722 42.0263 109.339 42.8712 108.56 44.5688C109.334 45.8942 109.72 46.5501 110.496 47.8654C108.846 48.0048 108.017 48.066 106.363 48.1729C105.172 49.6932 104.573 50.459 103.352 51.9918C103.146 50.3087 103.04 49.4727 102.828 47.8009C101.328 47.3637 100.574 47.139 99.076 46.6683C100.613 45.5899 101.374 45.0502 102.884 43.964L102.889 43.9628Z" fill="#FBFFFF"/>
<path d="M126.346 30.3298C126.485 28.7266 126.546 27.9295 126.673 26.3533C127.85 27.1577 128.441 27.552 129.627 28.3351C131.173 27.6355 131.944 27.2841 133.479 26.5778C132.852 28.1182 132.532 28.8946 131.886 30.4731C132.721 31.6067 133.141 32.1729 133.979 33.2963C132.377 33.5331 131.58 33.6481 129.979 33.8658C128.925 35.3231 128.39 36.0584 127.313 37.5404C127.005 36.0358 126.849 35.2885 126.538 33.794C125.059 33.5137 124.322 33.3708 122.849 33.0603C124.257 31.962 124.954 31.4146 126.346 30.3298Z" fill="#FBFFFF"/>
<path d="M20.7026 94.7558C21.4274 93.0145 21.788 92.1372 22.5004 90.3848C23.7678 91.9433 24.3981 92.7186 25.6564 94.2604C27.8982 94.2721 29.0128 94.2629 31.2129 94.2041C29.8691 95.7248 29.1905 96.4774 27.8242 97.9656C28.5061 99.7384 28.8448 100.625 29.5266 102.398C27.4217 101.794 26.368 101.478 24.2338 100.815C22.3917 101.875 21.4566 102.387 19.5797 103.385C19.6666 101.537 19.705 100.612 19.7919 98.7649C17.9496 97.5944 17.0267 97.0024 15.1663 95.7983C17.3993 95.4167 18.5068 95.2091 20.697 94.7524L20.7026 94.7558Z" fill="#FBFFFF"/>
<path d="M53.2469 88.713C53.831 86.8308 54.1186 85.8909 54.6926 84.0065C55.8888 85.359 56.4886 86.0324 57.6847 87.3658C59.7068 86.9992 60.7065 86.7997 62.6959 86.3793C61.549 88.1126 60.966 88.9792 59.7934 90.7046C60.4795 92.362 60.8225 93.1906 61.512 94.8424C59.5829 94.6136 58.6139 94.4813 56.6668 94.1998C55.0433 95.5956 54.2253 96.2879 52.5635 97.6457C52.5729 95.7559 52.5776 94.811 52.587 92.9211C50.8867 92.0675 50.0371 91.6334 48.3267 90.7394C50.3141 89.9526 51.2988 89.5424 53.2502 88.7074L53.2469 88.713Z" fill="#FBFFFF"/>
<path d="M82.489 77.5732C82.9283 75.6656 83.1417 74.7157 83.5664 72.8261C84.7363 73.9612 85.3224 74.5236 86.5001 75.6329C88.3386 74.9932 89.2527 74.6628 91.072 73.985C90.1038 75.8019 89.6141 76.7165 88.6246 78.5435C89.3508 80.0383 89.7105 80.7817 90.4389 82.2663C88.6407 82.3287 87.7349 82.352 85.9254 82.3696C84.4998 83.9633 83.7786 84.7551 82.3261 86.3366C82.2436 84.4985 82.1989 83.5851 82.1085 81.7538C80.5043 81.1858 79.7044 80.8917 78.0945 80.2822C79.8725 79.2145 80.7526 78.6733 82.4991 77.5754L82.489 77.5732Z" fill="#FBFFFF"/>
<path d="M109.037 63.1186C109.334 61.2898 109.48 60.3759 109.758 58.5662C110.932 59.4905 111.525 59.9465 112.702 60.8462C114.403 60.0409 115.255 59.6355 116.942 58.8101C116.137 60.5952 115.725 61.4951 114.894 63.306C115.672 64.6112 116.061 65.2616 116.842 66.5567C115.134 66.825 114.278 66.9503 112.562 67.1873C111.309 68.8423 110.674 69.6743 109.391 71.3372C109.202 69.626 109.105 68.7733 108.91 67.0733C107.365 66.7383 106.59 66.5618 105.043 66.1842C106.649 64.9644 107.444 64.3495 109.024 63.122L109.037 63.1186Z" fill="#FBFFFF"/>
<path d="M133.52 47.144C133.692 45.4611 133.778 44.6293 133.937 42.9734C135.136 43.7149 135.735 44.0835 136.942 44.7992C138.55 43.946 139.349 43.516 140.946 42.6605C140.268 44.3187 139.926 45.1579 139.227 46.8498C140.067 47.9632 140.484 48.5204 141.326 49.6237C139.678 49.9962 138.85 50.1763 137.202 50.5297C136.087 52.1261 135.523 52.9355 134.383 54.5622C134.094 53.0239 133.949 52.2598 133.654 50.7327C132.136 50.5624 131.377 50.4677 129.861 50.2683C131.334 49.0152 132.064 48.3881 133.52 47.144Z" fill="#FBFFFF"/>
<path d="M-9.11887 15.158C-8.32445 13.4469 -7.93118 12.5851 -7.15027 10.8584C-5.85586 12.4673 -5.21428 13.2684 -3.9356 14.8717C-1.60269 14.9987 -0.457577 15.0533 1.81129 15.1535C0.404464 16.5757 -0.310192 17.2801 -1.75523 18.6834C-1.07891 20.4909 -0.74581 21.3936 -0.0706256 23.1967C-2.23198 22.464 -3.32838 22.0921 -5.53805 21.3383C-7.47907 22.3089 -8.46138 22.7852 -10.4552 23.7167C-10.3312 21.8837 -10.2715 20.9679 -10.1498 19.126C-12.0618 17.9063 -13.0274 17.2965 -14.971 16.0656C-12.5998 15.7207 -11.4294 15.5353 -9.12336 15.1591L-9.11887 15.158Z" fill="#FBFFFF"/>
<path d="M24.1017 12.0954C24.7018 10.3141 25.0018 9.42344 25.5839 7.64666C26.7435 9.17517 27.3221 9.93494 28.4771 11.4455C30.4583 11.4085 31.436 11.3862 33.3689 11.328C32.2361 12.8337 31.663 13.5882 30.4977 15.0973C31.1503 16.8489 31.4767 17.7246 32.1281 19.4717C30.2501 18.9155 29.3043 18.6296 27.3947 18.0432C25.784 19.1688 24.9669 19.7322 23.3046 20.8423C23.3387 18.9748 23.3558 18.0411 23.3888 16.1692C21.7206 15.0834 20.8797 14.5327 19.1912 13.4235C21.1837 12.9023 22.1654 12.6311 24.1006 12.0909L24.1017 12.0954Z" fill="#FBFFFF"/>
<path d="M52.2749 6.84934C52.692 5.09983 52.8922 4.22958 53.2903 2.49917C54.3766 3.88885 54.9236 4.58032 56.0143 5.94982C57.7259 5.79016 58.5721 5.70083 60.2499 5.52107C59.3596 7.02281 58.9066 7.78042 57.9872 9.29904C58.6608 10.9262 58.9949 11.738 59.6719 13.3595C58.003 12.9699 57.1584 12.7633 55.4714 12.34C54.1371 13.539 53.4626 14.138 52.0867 15.3427C52.0121 13.536 51.9742 12.6304 51.8962 10.8293C50.3967 9.90124 49.6425 9.42881 48.1306 8.4705C49.8119 7.8323 50.6419 7.50873 52.2771 6.8583L52.2749 6.84934Z" fill="#FBFFFF"/>
<path d="M76.578 0.133428C76.8225 -1.50585 76.9409 -2.32211 77.1675 -3.93781C78.2388 -2.72071 78.7778 -2.11777 79.8524 -0.925337C81.374 -1.17536 82.1292 -1.30372 83.6328 -1.56827C82.9433 -0.14096 82.5856 0.57833 81.8692 2.03148C82.5897 3.48475 82.9538 4.20802 83.6821 5.65455C82.1448 5.40806 81.3711 5.27418 79.8259 4.99632C78.7149 6.19143 78.1516 6.79574 77.007 8.00886C76.817 6.33134 76.7209 5.49762 76.5242 3.83132C75.1183 3.06557 74.4181 2.67484 73.0098 1.88107C74.4564 1.18286 75.1696 0.831545 76.578 0.133428Z" fill="#FBFFFF"/>
<path d="M98.1913 -7.32518C98.2947 -8.80497 98.3392 -9.53589 98.427 -10.9831C99.5225 -9.95328 100.073 -9.43891 101.177 -8.43037C102.586 -8.72834 103.289 -8.87675 104.691 -9.18255C104.145 -7.88671 103.867 -7.23037 103.296 -5.89972C104.086 -4.645 104.484 -4.01596 105.277 -2.76685C103.805 -2.90589 103.069 -2.98269 101.596 -3.14526C100.645 -2.01439 100.164 -1.44502 99.1876 -0.283838C98.8858 -1.78065 98.7315 -2.52344 98.4185 -4.0079C97.0522 -4.61682 96.3667 -4.93024 95.0071 -5.56944C96.2897 -6.274 96.9266 -6.62515 98.1879 -7.31957L98.1913 -7.32518Z" fill="#FBFFFF"/>
<path d="M-5.54037 38.1782C-4.74926 36.4918 -4.35595 35.6491 -3.57835 33.947C-2.27833 35.5592 -1.62663 36.3625 -0.337849 37.9681C2.00635 38.1209 3.16269 38.1821 5.44842 38.2924C4.03258 39.6978 3.31566 40.3933 1.86496 41.7741C2.54463 43.5761 2.88558 44.472 3.56974 46.2728C1.39039 45.5256 0.291723 45.1448 -1.92923 44.3652C-3.87481 45.2988 -4.86279 45.7527 -6.85786 46.6416C-6.73831 44.8288 -6.68191 43.9186 -6.56349 42.1013C-8.48123 40.8593 -9.45134 40.2315 -11.4017 38.9738C-9.0315 38.6815 -7.85879 38.5242 -5.54373 38.1838L-5.54037 38.1782Z" fill="#FBFFFF"/>
<path d="M28.0447 35.0663C28.6605 33.2715 28.9639 32.3753 29.565 30.5794C30.7458 32.0787 31.3357 32.8261 32.5086 34.3131C34.5346 34.2267 35.5335 34.1751 37.5123 34.053C36.3482 35.6047 35.7606 36.3772 34.5605 37.9188C35.2199 39.6592 35.554 40.5282 36.2167 42.263C34.2983 41.7551 33.3346 41.4927 31.3881 40.949C29.7393 42.1128 28.9065 42.6897 27.2185 43.8301C27.2571 41.9615 27.2741 41.0277 27.3116 39.1547C25.6132 38.1004 24.7611 37.5621 23.0458 36.4787C25.073 35.9249 26.0703 35.6402 28.0425 35.0573L28.0447 35.0663Z" fill="#FBFFFF"/>
<path d="M56.9973 28.6944C57.4413 26.9 57.6538 26.0028 58.0821 24.2219C59.1997 25.5655 59.7602 26.2346 60.8766 27.5547C62.6508 27.2839 63.5316 27.1429 65.2698 26.8431C64.3348 28.4324 63.8583 29.2293 62.8886 30.8321C63.5723 32.4424 63.9142 33.2475 64.5968 34.8533C62.8708 34.559 62.0005 34.4018 60.2554 34.0695C58.8685 35.3628 58.1671 36.0066 56.7409 37.2955C56.6752 35.4675 56.6452 34.5551 56.5728 32.7384C55.0286 31.8788 54.2542 31.44 52.6975 30.5502C54.4359 29.8166 55.2972 29.447 56.9929 28.6955L56.9973 28.6944Z" fill="#FBFFFF"/>
<path d="M82.3287 20.0797C82.6079 18.3698 82.7408 17.5165 83.0054 15.8245C84.1057 16.9866 84.6615 17.5615 85.7652 18.6989C87.3595 18.3019 88.1482 18.0984 89.7245 17.6868C88.9779 19.2286 88.5968 20.0062 87.8234 21.5738C88.5551 23.0147 88.9226 23.7324 89.6609 25.1621C88.0599 25.0413 87.2594 24.9713 85.6494 24.8147C84.4758 26.14 83.8767 26.8105 82.6684 28.1493C82.4896 26.4404 82.4035 25.5898 82.218 23.8921C80.7651 23.224 80.0381 22.8781 78.5806 22.173C80.0976 21.3379 80.8454 20.9159 82.3276 20.0753L82.3287 20.0797Z" fill="#FBFFFF"/>
<path d="M105.067 10.25C105.206 8.68497 105.273 7.91029 105.395 6.37329C106.52 7.34816 107.081 7.83112 108.213 8.78019C109.696 8.32065 110.431 8.09258 111.902 7.62186C111.297 9.04674 110.994 9.7715 110.369 11.2301C111.167 12.478 111.567 13.097 112.366 14.3349C110.834 14.335 110.068 14.3277 108.534 14.2998C107.516 15.581 107.002 16.23 105.958 17.5371C105.669 15.9988 105.529 15.2335 105.233 13.7064C103.818 13.2052 103.112 12.9445 101.698 12.4097C103.054 11.5436 103.728 11.1116 105.062 10.2512L105.067 10.25Z" fill="#FBFFFF"/>
<path d="M-1.89909 61.0726C-1.11017 59.4153 -0.719083 58.5827 0.0596918 56.9041C1.37096 58.5231 2.01929 59.332 3.32381 60.9431C5.67928 61.1217 6.84465 61.1997 9.14389 61.3257C7.71902 62.7143 6.99535 63.4019 5.54235 64.7547C6.23099 66.5544 6.57307 67.4549 7.26059 69.2501C5.07109 68.4816 3.96903 68.0873 1.74015 67.2763C-0.210007 68.1729 -1.19802 68.6078 -3.19209 69.444C-3.07811 67.647 -3.01945 66.7457 -2.90774 64.9397C-4.83341 63.6662 -5.80243 63.0239 -7.75733 61.7292C-5.3859 61.4986 -4.2165 61.3659 -1.89909 61.0726Z" fill="#FBFFFF"/>
<path d="M32.025 57.9948C32.6564 56.1865 32.9676 55.2835 33.5833 53.4696C34.7832 54.9498 35.3797 55.686 36.5762 57.1528C38.6425 57.0181 39.6638 56.9419 41.6851 56.7613C40.4919 58.3489 39.8864 59.145 38.6617 60.7215C39.3334 62.4539 39.6664 63.3185 40.3358 65.042C38.3816 64.5813 37.3988 64.338 35.4142 63.8325C33.7364 65.0323 32.8845 65.6282 31.1639 66.7911C31.2059 64.9169 31.2275 63.982 31.2649 62.109C29.5385 61.076 28.6764 60.5545 26.933 59.4925C28.9882 58.9174 30.0057 58.618 32.016 57.997L32.025 57.9948Z" fill="#FBFFFF"/>
<path d="M61.719 50.5731C62.1887 48.7293 62.4157 47.8142 62.8697 45.9839C64.0153 47.2871 64.5836 47.9304 65.728 49.2101C67.5625 48.8383 68.4725 48.6423 70.2789 48.2347C69.2935 49.9082 68.7981 50.7432 67.7813 52.4246C68.4718 54.0236 68.8204 54.8176 69.5142 56.411C67.7345 56.2065 66.8385 56.0987 65.0385 55.8517C63.5979 57.2347 62.8698 57.9235 61.3932 59.2965C61.3376 57.4517 61.3098 56.5293 61.2508 54.69C59.6663 53.8978 58.8707 53.4882 57.2726 52.6612C59.0658 51.8423 59.9528 51.4234 61.71 50.5754L61.719 50.5731Z" fill="#FBFFFF"/>
<path d="M88.0461 40.1349C88.3599 38.3543 88.5129 37.4673 88.8088 35.7102C89.9383 36.8174 90.5063 37.3653 91.6436 38.4466C93.3082 37.9127 94.1361 37.6373 95.776 37.0811C94.977 38.7362 94.5668 39.5688 93.7398 41.2452C94.4815 42.6693 94.8512 43.3769 95.5952 44.7909C93.9338 44.7901 93.1009 44.7808 91.4304 44.7442C90.1898 46.2008 89.5628 46.9308 88.2941 48.3896C88.1321 46.6526 88.0516 45.7864 87.8817 44.0561C86.3796 43.4767 85.6269 43.1802 84.1258 42.5671C85.7099 41.6007 86.4935 41.1125 88.0495 40.1293L88.0461 40.1349Z" fill="#FBFFFF"/>
<path d="M111.877 28.0186C112.053 26.3728 112.138 25.5555 112.296 23.9332C113.444 24.8497 114.021 25.3001 115.178 26.1954C116.727 25.581 117.498 25.2721 119.039 24.6454C118.381 26.1982 118.05 26.9825 117.371 28.5644C118.174 29.7967 118.577 30.41 119.382 31.6322C117.793 31.7658 116.997 31.8281 115.401 31.9349C114.32 33.3608 113.772 34.085 112.663 35.5323C112.394 33.9558 112.257 33.1704 111.982 31.6097C110.521 31.2106 109.791 31.0037 108.331 30.571C109.757 29.5489 110.468 29.0362 111.871 28.0153L111.877 28.0186Z" fill="#FBFFFF"/>
<path d="M1.79425 83.9066C2.58435 82.2728 2.97321 81.4503 3.75202 79.7908C5.06669 81.4232 5.72177 82.2399 7.02968 83.8645C9.39422 84.0789 10.563 84.1704 12.8813 84.3154C11.4475 85.6872 10.7215 86.3658 9.26286 87.6962C9.95264 89.5004 10.2992 90.3997 10.989 92.2039C8.78821 91.4097 7.68275 91.0019 5.44817 90.1495C3.49344 91.0091 2.50425 91.4205 0.512326 92.2084C0.624078 90.4215 0.679386 89.5258 0.788873 87.7299C-1.14023 86.424 -2.11043 85.7581 -4.06205 84.4197C-1.69386 84.2518 -0.522155 84.1472 1.79647 83.8965L1.79425 83.9066Z" fill="#FBFFFF"/>
<path d="M36.0199 80.9098C36.667 79.0881 36.9849 78.1738 37.6163 76.3465C38.8307 77.8087 39.4396 78.5371 40.6539 79.9803C42.7572 79.8029 43.8009 79.7019 45.8659 79.4675C44.6402 81.0966 44.0201 81.9107 42.7652 83.5186C43.4403 85.2455 43.7811 86.1033 44.4595 87.8245C42.4683 87.4065 41.4665 87.1823 39.4562 86.7071C37.7447 87.9439 36.8805 88.5478 35.1297 89.7421C35.175 87.8623 35.2 86.9218 35.2453 85.042C33.4953 84.0293 32.6163 83.5168 30.8528 82.4694C32.9406 81.8717 33.9738 81.5589 36.0187 80.9053L36.0199 80.9098Z" fill="#FBFFFF"/>
<path d="M66.4261 72.4892C66.9226 70.6005 67.1631 69.6629 67.6428 67.7832C68.8107 69.0427 69.3936 69.668 70.5659 70.9073C72.4597 70.43 73.401 70.188 75.2656 69.6704C74.2389 71.4258 73.7154 72.3013 72.6562 74.0601C73.3567 75.6423 73.7053 76.4362 74.4092 78.0128C72.577 77.9026 71.6575 77.8341 69.8083 77.6757C68.3185 79.1474 67.5624 79.8766 66.0344 81.3293C65.9933 79.4665 65.9677 78.534 65.9233 76.6768C64.2974 75.9474 63.4861 75.5704 61.85 74.8007C63.698 73.8964 64.6118 73.4326 66.4261 72.4892Z" fill="#FBFFFF"/>
<path d="M93.7229 60.2809C94.068 58.4351 94.2366 57.5156 94.5672 55.6878C95.7257 56.74 96.306 57.261 97.4678 58.2885C99.1985 57.6188 100.061 57.2727 101.77 56.575C100.918 58.339 100.483 59.2255 99.6054 61.0051C100.353 62.4135 100.729 63.1099 101.479 64.5081C99.7581 64.632 98.8972 64.6821 97.1709 64.7644C95.8699 66.3411 95.2105 67.1317 93.8781 68.7162C93.7328 66.9512 93.6579 66.0692 93.5048 64.3109C91.9547 63.8246 91.1841 63.5707 89.6338 63.0463C91.2849 61.9486 92.1043 61.3942 93.7229 60.2809Z" fill="#FBFFFF"/>
<path d="M118.606 45.9263C118.819 44.1997 118.918 43.3453 119.119 41.6456C120.295 42.5027 120.883 42.9217 122.063 43.7586C123.678 42.9894 124.482 42.6008 126.09 41.8238C125.381 43.4944 125.021 44.3381 124.287 46.0435C125.096 47.2601 125.501 47.8633 126.312 49.0698C124.666 49.3369 123.839 49.4643 122.192 49.7079C121.047 51.2786 120.468 52.0679 119.295 53.6599C119.046 52.0498 118.919 51.2475 118.659 49.6497C117.153 49.3572 116.397 49.1997 114.892 48.8736C116.389 47.6955 117.133 47.1076 118.607 45.9308L118.606 45.9263Z" fill="#FBFFFF"/>
</svg>
