<svg width="175" height="175" viewBox="0 0 175 175" fill="black" xmlns="http://www.w3.org/2000/svg"><path fill-rule="evenodd" clip-rule="evenodd" d="M85.9783 28.7366L151.9 66.319V77.1275L142.7 71.8439V148H33.5013L33.4022 72.1067L23.7213 78.0787L23.5933 67.4478L85.9783 28.7366ZM86.3183 39.4637L140.7 70.6953V146H73.9V88.5H46.2V146H35.4987L35.4006 70.8739L86.3183 39.4637ZM48.2 146H71.9V90.5H48.2V146ZM86.0216 31.0634L25.6067 68.5522L25.6786 74.5213L86.2817 37.1363L149.9 73.6725V67.481L86.0216 31.0634ZM84.9903 88.9H131.8V121.9H85.3096L84.9903 88.9ZM87.0097 90.9L87.2904 119.9H129.8V90.9H87.0097ZM81.7 55.1C81.7 51.8415 84.3415 49.2 87.6 49.2C90.8585 49.2 93.5 51.8415 93.5 55.1C93.5 58.3585 90.8585 61 87.6 61C84.3415 61 81.7 58.3585 81.7 55.1ZM87.6 47.2C83.237 47.2 79.7 50.7369 79.7 55.1C79.7 59.4631 83.237 63 87.6 63C91.9631 63 95.5 59.4631 95.5 55.1C95.5 50.7369 91.9631 47.2 87.6 47.2Z"></path></svg>