<svg xmlns="http://www.w3.org/2000/svg" width="17" height="16" xmlns:v="https://vecta.io/nano"><path d="M13.318 16c.134 0 .237-.049.307-.146s.106-.217.106-.358c0-.087-.003-.155-.01-.202h0l-.867-5.041 3.66-3.569c.175-.175.262-.336.262-.484 0-.249-.188-.403-.565-.464h0l-5.061-.736L8.882.413C8.754.138 8.59 0 8.388 0s-.366.138-.494.413h0L5.626 5.001.565 5.737C.188 5.797 0 5.952 0 6.2c0 .141.084.302.252.484h0l3.67 3.569-.867 5.041-.02.202c0 .141.035.26.106.358s.176.146.318.146c.121 0 .255-.04.403-.121h0L8.388 13.5l4.527 2.379c.141.081.276.121.403.121z" fill="#f4ca20"/></svg>