<svg width="175" height="175" viewBox="0 0 175 175" fill="black" xmlns="http://www.w3.org/2000/svg"><path fill-rule="evenodd" clip-rule="evenodd" d="M120.4 18.1984V156.4H55.5V18.3016L120.4 18.1984ZM57.5 33.8V62.7H118.4V33.8H57.5ZM57.5 31.8H118.4V20.2016L57.5 20.2984V31.8ZM57.5 92.2V64.7H118.4V92.2H57.5ZM57.5 94.2V126.3H118.4V94.2H57.5ZM57.5 154.4V128.3H118.4V154.4H92.8V130.8H80.9V154.4H57.5ZM82.9 154.4H90.8V132.8H82.9V154.4ZM61.8 36.7H73.8V59H61.8V36.7ZM63.8 52.7V57H71.8V52.7H63.8ZM63.8 50.7H71.8V45.2H63.8V50.7ZM63.8 43.2H71.8V38.7H63.8V43.2ZM93.8 36.7H81.8V59H93.8V36.7ZM83.8 57V52.7H91.8V57H83.8ZM91.8 50.7H83.8V45.2H91.8V50.7ZM91.8 43.2H83.8V38.7H91.8V43.2ZM101.8 36.7H113.8V59H101.8V36.7ZM103.8 52.7V57H111.8V52.7H103.8ZM103.8 50.7H111.8V45.2H103.8V50.7ZM103.8 43.2H111.8V38.7H103.8V43.2ZM113.8 66.7H101.8V86.2H113.8V66.7ZM103.8 84.2V80.8H111.8V84.2H103.8ZM111.8 78.8H103.8V74.3H111.8V78.8ZM111.8 72.3H103.8V68.7H111.8V72.3ZM81.8 66.7H93.8V86.2H81.8V66.7ZM83.8 80.8V84.2H91.8V80.8H83.8ZM83.8 78.8H91.8V74.3H83.8V78.8ZM83.8 72.3H91.8V68.7H83.8V72.3ZM73.8 66.7H61.8V86.2H73.8V66.7ZM63.8 84.2V80.791L71.8 80.7111V84.2H63.8ZM71.8 78.7109L63.8 78.791V74.291L71.8 74.2111V78.7109ZM71.8 72.2109L63.8 72.291V68.7H71.8V72.2109ZM61.8 99.2H73.8V118.7H61.8V99.2ZM63.8 113.3V116.7H71.8V113.3H63.8ZM63.8 111.3H71.8V106.8H63.8V111.3ZM63.8 104.8H71.8V101.2H63.8V104.8ZM93.8 99.2H81.8V118.7H93.8V99.2ZM83.8 116.7V113.3H91.8V116.7H83.8ZM91.8 111.3H83.8V106.809L91.8 106.89V111.3ZM91.8 104.89L83.8 104.809V101.2H91.8V104.89ZM101.8 99.2H113.8V118.7H101.8V99.2ZM103.8 113.291V116.7H111.8V113.209L103.8 113.291ZM103.8 111.291L111.8 111.209V106.8H103.8V111.291ZM103.8 104.8H111.8V101.2H103.8V104.8ZM113.8 131.7H101.8V151.2H113.8V131.7ZM103.8 149.2V145.791L111.8 145.71V149.2H103.8ZM111.8 143.71L103.8 143.791V139.291L111.8 139.21V143.71ZM111.8 137.21L103.8 137.291V133.7H111.8V137.21ZM61.8 131.7H73.8V151.2H61.8V131.7ZM63.8 145.8V149.2H71.8V145.8H63.8ZM63.8 143.8H71.8V139.3H63.8V143.8ZM63.8 137.3H71.8V133.7H63.8V137.3Z"></path></svg>