<?xml version="1.0" encoding="UTF-8"?>
<svg width="20px" height="16px" viewBox="0 0 20 16" version="1.1" xmlns="http://www.w3.org/2000/svg" xmlns:xlink="http://www.w3.org/1999/xlink">
    <!-- Generator: Sketch 63.1 (92452) - https://sketch.com -->
    <title>Path</title>
    <desc>Created with Sketch.</desc>
    <g id="Page-1" stroke="none" stroke-width="1" fill="none" fill-rule="evenodd">
        <g id="Step1" transform="translate(-50.000000, -714.000000)" fill="#4a4a4a" fill-rule="nonzero">
            <g id="Button" transform="translate(50.000000, 709.000000)">
                <path d="M0.96969697,13.7960303 L16.0833939,13.7960303 L10.8819394,18.9974849 C10.5032727,19.3761515 10.5032727,19.9902121 10.881697,20.3686364 C11.2603636,20.747303 11.8746667,20.747303 12.2533333,20.3686364 L19.1098182,13.5119091 L19.1098182,13.5119091 C19.1549091,13.4668182 19.1951515,13.4171212 19.2305455,13.3642727 C19.2467879,13.3397879 19.2581818,13.3133636 19.2722424,13.2879091 C19.2882424,13.2578485 19.3066667,13.2292424 19.3195152,13.1974849 C19.3333333,13.1647576 19.3410909,13.1308182 19.3507879,13.0968788 C19.3587879,13.0699697 19.3692121,13.0442727 19.3747879,13.0166364 C19.3873939,12.9536061 19.3939394,12.8900909 19.3939394,12.8263333 L19.3939394,12.8263333 C19.3939394,12.8256061 19.393697,12.8248788 19.393697,12.8241515 C19.3934545,12.7613636 19.3871515,12.6983333 19.3747879,12.6365152 C19.3689697,12.6074242 19.3580606,12.5805152 19.3495758,12.5519091 C19.3401212,12.5196667 19.3328485,12.4869394 19.3197576,12.4556667 C19.305697,12.4219697 19.2867879,12.3914242 19.2693333,12.3596667 C19.2562424,12.3359091 19.2458182,12.3116667 19.2307879,12.2888788 C19.1953939,12.235303 19.1546667,12.1853636 19.1093333,12.1400303 L12.2530909,5.28403031 C11.8744242,4.90536364 11.2603636,4.90536364 10.881697,5.28378789 C10.5030303,5.66245455 10.5030303,6.27651516 10.881697,6.65542425 L16.0831515,11.8566364 L0.96969697,11.8566364 C0.434181818,11.8566364 0,12.2908182 0,12.8263333 C0,13.3618485 0.434181818,13.7960303 0.96969697,13.7960303 Z" id="Path" transform="translate(9.696970, 12.826318) scale(-1, 1) translate(-9.696970, -12.826318) "></path>
            </g>
        </g>
    </g>
</svg>