<?xml version="1.0" encoding="UTF-8"?>
<svg width="40px" height="40px" viewBox="0 0 40 40" version="1.1" xmlns="http://www.w3.org/2000/svg" xmlns:xlink="http://www.w3.org/1999/xlink">
    <!-- Generator: Sketch 63.1 (92452) - https://sketch.com -->
    <title>equivalent to driving</title>
    <desc>Created with Sketch.</desc>
    <g id="Page-1" stroke="none" stroke-width="1" fill="none" fill-rule="evenodd">
        <g id="Homepage-V1" transform="translate(-1075.000000, -1486.000000)" fill="#91b5ca" fill-rule="nonzero">
            <g id="3-Boxs" transform="translate(0.000000, 996.000000)">
                <g id="Partial-Report" transform="translate(100.000000, 390.000000)">
                    <g id="4" transform="translate(945.000000, 53.000000)">
                        <g id="equivalent-to-driving" transform="translate(30.000000, 47.000000)">
                            <path d="M0,18.875 C5.32926847,18.9706099 10.4483537,20.9703565 14.43125,24.5125 L14.43125,24.5125 L14.85,24.88125 L18.89375,26.09375 C21.1738461,26.7765515 22.7345382,28.8761144 22.7312552,31.25625 L22.7312552,31.25625 L22.7312552,34.6125 C22.7295009,35.1329925 22.3079925,35.5545009 21.7875,35.55625 L21.7875,35.55625 L19.675,35.55625 C19.2116265,38.1195271 16.9860446,39.9877547 14.38125,40 C14.1239747,40 13.8670461,39.9811247 13.6125,39.94375 C11.318592,39.6020425 9.49670601,37.8379543 9.08125,35.55625 L9.08125,35.55625 L0,35.55625 L0,33.675 L9.08125,33.675 C9.1,33.58125 9.1125,33.51875 9.13125,33.44375 C9.15,33.3625 9.175,33.2625 9.2,33.1625 C9.23125,33.0625 9.25,33 9.26875,32.95 C9.29667281,32.8544133 9.33006109,32.7605088 9.36875,32.66875 C9.36875,32.66875 9.425,32.51875 9.4375,32.4875 C9.48539693,32.3761436 9.53965302,32.2676314 9.6,32.1625 C9.61904024,32.1148288 9.64203719,32.0688349 9.66875,32.025 C9.7426498,31.8786876 9.8283501,31.7386407 9.925,31.60625 C9.94313274,31.5717586 9.96630384,31.5401616 9.99375,31.5125 C10.0625,31.4125 10.1375,31.3125 10.21875,31.2125 L10.21875,31.2125 L10.26875,31.1625 C10.2910792,31.1366009 10.311945,31.1094754 10.33125,31.08125 L10.33125,31.08125 L10.54375,30.85 C10.5948076,30.7947769 10.6490679,30.7426036 10.70625,30.69375 L10.70625,30.69375 L10.90625,30.5125 C10.9625,30.4625 11.025,30.41875 11.08125,30.36875 C11.125,30.3375 11.175,30.3 11.225,30.2625 L11.225,30.2625 L11.30625,30.20625 C11.375,30.15625 11.43125,30.11875 11.49375,30.08125 C11.56875,30.03125 11.65,29.98125 11.7375,29.93125 C11.79375,29.9 11.8625,29.8625 11.925,29.83125 C12.00625,29.7875 12.09375,29.75 12.175,29.70625 C12.21875,29.6875 12.375,29.61875 12.375,29.61875 L12.375,29.61875 L12.85,29.45 L12.91875,29.43125 L13.1625,29.375 C13.2260364,29.3561162 13.290764,29.3415003 13.35625,29.33125 C13.4320216,29.3116912 13.5094305,29.2991384 13.5875,29.29375 L13.5875,29.29375 L13.69375,29.275 L13.8625,29.25625 C14.03125,29.24375 14.20625,29.23125 14.38125,29.23125 C14.5625,29.23125 14.73125,29.24375 14.9,29.25625 L14.9,29.25625 L15.075,29.28125 C15.1875,29.29375 15.30625,29.3125 15.4125,29.33125 C15.45625,29.3375 15.6125,29.375 15.6125,29.375 L15.6125,29.375 L15.725,29.4 C15.7875,29.41875 15.85625,29.4375 15.925,29.45625 L15.925,29.45625 L16.1125,29.51875 C16.21875,29.55625 16.30625,29.5875 16.39375,29.625 C16.4344067,29.6389929 16.4740791,29.6556971 16.5125,29.675 L16.5125,29.675 L16.64375,29.73125 C16.7163041,29.7607971 16.7872373,29.7941775 16.85625,29.83125 C16.9235473,29.8662247 16.9882915,29.9059067 17.05,29.95 C17.1323509,29.9900987 17.211721,30.0360498 17.2875,30.0875 C17.34375,30.125 17.40625,30.1625 17.46875,30.2125 C17.5375,30.25625 17.61875,30.31875 17.69375,30.375 C17.69375,30.375 17.83125,30.4875 17.8625,30.50625 C17.9375,30.56875 18.00625,30.63125 18.075,30.7 C18.11875,30.74375 18.15,30.76875 18.175,30.8 L18.175,30.8 L18.21875,30.84375 C18.3,30.925 18.36875,31.00625 18.43125,31.08125 C18.4752693,31.1207721 18.515066,31.1647579 18.55,31.2125 C18.63125,31.3125 18.7125,31.41875 18.78125,31.51875 C18.8083149,31.552663 18.8333583,31.5881412 18.85625,31.625 C18.94375,31.75 19.03125,31.89375 19.1125,32.0375 C19.1375,32.08125 19.15625,32.13125 19.18125,32.18125 C19.225,32.275 19.28125,32.38125 19.33125,32.4875 L19.33125,32.4875 L19.4,32.65625 L19.44375,32.78125 C19.46875,32.84375 19.49375,32.90625 19.5125,32.96875 C19.525,33.00625 19.5375,33.0625 19.55,33.1125 L19.55,33.1125 L19.64375,33.44375 C19.655599,33.4973171 19.6639499,33.5515984 19.66875,33.60625 L19.66875,33.60625 L19.68125,33.675 L20.85,33.675 L20.85,31.25 C20.8500001,29.7050759 19.8362315,28.3432213 18.35625,27.9 L18.35625,27.9 L14.21875,26.65625 L0,26.6625 L0,24.7875 L11.78125,24.7875 C8.36887166,22.2506202 4.25112741,20.8394463 0,20.75 L0,20.75 Z M29.711,0 C35.373875,0 39.980625,6.2670625 39.980625,13.970625 C39.980625,21.2440625 35.873375,27.2339375 30.6485,27.8805625 L30.6485,27.8805625 L30.6485,39.0625 C30.6485,39.580267 30.228767,40 29.711,40 C29.193233,40 28.7735,39.580267 28.7735,39.0625 L28.7735,39.0625 L28.7735,27.8805625 C23.54925,27.2339375 19.441875,21.244 19.441875,13.970625 C19.441875,6.2670625 24.048125,0 29.711,0 Z M14.3895796,31.1125056 C12.4573976,31.1113581 10.8898017,32.6761598 10.8874999,34.6083408 C10.8852033,36.5405218 12.4490707,38.1090497 14.38125,38.1125056 C15.3104593,38.1135448 16.201941,37.745329 16.8595274,37.0889031 C17.5171138,36.4324772 17.8869037,35.5416472 17.8874999,34.6125056 C17.8874999,32.6803176 16.3217616,31.1136543 14.3895796,31.1125056 Z M29.711,1.875 C25.08275,1.875 21.316875,7.301 21.316875,13.970625 C21.316875,20.183125 24.5853125,25.311375 28.7735,25.98625 L28.7735,25.98625 L28.7735,22.5696875 L25.9896875,18.59375 C25.6950341,18.1696948 25.7987662,17.5872095 26.2216978,17.2909457 C26.6446294,16.9946818 27.227505,17.0961981 27.525375,17.518 L27.525375,17.518 L28.7735,19.300625 L28.7735,13.067 C28.7735,12.549233 29.193233,12.1295 29.711,12.1295 C30.228767,12.1295 30.6485,12.549233 30.6485,13.067 L30.6485,13.067 L30.6485,17.51025 L33.4079375,14.7506875 C33.7755136,14.3935576 34.3617487,14.3977824 34.7241394,14.7601731 C35.0865301,15.1225638 35.0907549,15.7087989 34.733625,16.076375 L34.733625,16.076375 L30.6485,20.1616875 L30.6485,25.986 C34.8373125,25.3115 38.105625,20.183125 38.105625,13.970625 C38.105625,7.301 34.33925,1.875 29.711,1.875 Z" id="Combined-Shape"></path>
                        </g>
                    </g>
                </g>
            </g>
        </g>
    </g>
</svg>