<?xml version="1.0" encoding="UTF-8"?>
<svg width="122px" height="21px" viewBox="0 0 122 21" version="1.1" xmlns="http://www.w3.org/2000/svg" xmlns:xlink="http://www.w3.org/1999/xlink">
    <!-- Generator: Sketch 63.1 (92452) - https://sketch.com -->
    <title>logo</title>
    <desc>Created with Sketch.</desc>
    <g id="Page-1" stroke="none" stroke-width="1" fill="none" fill-rule="evenodd">
        <g id="logo" fill="#393939" fill-rule="nonzero">
            <path d="M6.495,20.556 C2.642,20.556 0.111,18.356 0,15.41 L2.037,15.41 C2.2,17.003 3.385,18.933 6.495,18.933 C9.164,18.933 10.733,17.364 10.733,15.383 C10.733,9.714 0.166,13.292 0.166,6.055 C0.166,3.083 2.615,0.909 6.33,0.909 C9.99,0.909 12.192,2.946 12.522,5.588 L10.43,5.588 C10.21,4.239 8.916,2.588 6.247,2.561 C3.99,2.532 2.119,3.77 2.119,6.003 C2.119,11.562 12.686,8.149 12.686,15.303 C12.686,17.917 10.567,20.559 6.494,20.559" id="Path_1889"></path>
            <path d="M28.318,20.364 L26.392,20.364 L26.392,17.719 C25.399456,19.6021412 23.3981066,20.7316389 21.273,20.608 C17.861,20.608 15.164,18.516 15.164,14.113 L15.164,5.339 L17.064,5.339 L17.064,13.897 C17.064,17.227 18.88,18.933 21.632,18.933 C24.439,18.933 26.393,17.172 26.393,13.512 L26.393,5.339 L28.319,5.339 L28.318,20.364 Z" id="Path_1890"></path>
            <path d="M42.876,11.778 C42.876,8.448 41.06,6.742 38.308,6.742 C35.501,6.742 33.547,8.503 33.547,12.163 L33.547,20.363 L31.621,20.363 L31.621,5.334 L33.547,5.334 L33.547,7.893 C34.5655518,6.04160686 36.5562679,4.93911024 38.666,5.058 C42.078,5.058 44.775,7.15 44.775,11.553 L44.775,20.364 L42.875,20.364 L42.876,11.778 Z" id="Path_1891"></path>
            <polygon id="Path_1892" points="60.793 1.156 64.893 1.156 57.848 20.364 53.17 20.364 46.125 1.156 50.253 1.156 55.537 16.429"></polygon>
            <path d="M72.077,4.871 C74.0510588,4.80466511 75.9324176,5.7094806 77.113,7.293 L77.113,5.119 L80.993,5.119 L80.993,20.364 L77.113,20.364 L77.113,18.135 C75.9409127,19.7496474 74.0441336,20.6776193 72.05,20.612 C68.197,20.612 65.115,17.447 65.115,12.687 C65.115,7.927 68.197,4.872 72.077,4.872 M73.067,8.257 C71.003,8.257 69.05,9.798 69.05,12.687 C69.05,15.576 71.004,17.228 73.067,17.228 C75.186,17.228 77.112,15.628 77.112,12.743 C77.112,9.858 75.186,8.258 73.067,8.258" id="Path_1893"></path>
            <rect id="Rectangle_86" x="83.664" y="0" width="3.853" height="20.364"></rect>
            <path d="M104.604,20.364 L100.724,20.364 L100.724,18.438 C99.6262323,19.8171682 97.94516,20.6016193 96.183,20.557 C92.633,20.557 90.074,18.245 90.074,14.062 L90.074,5.119 L93.927,5.119 L93.927,13.512 C93.927,15.961 95.275,17.282 97.312,17.282 C99.403,17.282 100.724,15.961 100.724,13.512 L100.724,5.119 L104.604,5.119 L104.604,20.364 Z" id="Path_1894"></path>
            <path d="M113.963,20.612 C109.533,20.612 106.313,17.53 106.313,12.742 C106.313,7.927 109.45,4.872 113.963,4.872 C115.990439,4.76796577 117.966673,5.52984372 119.399598,6.96791844 C120.832523,8.40599316 121.587307,10.3849469 121.476,12.412 C121.480642,12.9095279 121.443848,13.4065784 121.366,13.898 L110.221,13.898 C110.232717,14.8525343 110.626551,15.7625431 111.314402,16.4244593 C112.002254,17.0863756 112.92672,17.4449607 113.881,17.42 C115.183159,17.4991914 116.398717,16.7652392 116.935,15.576 L121.09,15.576 C120.152715,18.6921581 117.213267,20.7691979 113.963,20.612 M110.249,11.31 L117.487,11.31 C117.458654,10.3873812 117.054983,9.51629831 116.36937,8.89826554 C115.683758,8.28023277 114.775604,7.96879517 113.855,8.036 C111.973939,7.9956347 110.389945,9.43379215 110.249,11.31" id="Path_1895"></path>
        </g>
    </g>
</svg>