<?xml version="1.0" encoding="utf-8"?>
<!-- Generator: Adobe Illustrator 17.0.0, SVG Export Plug-In . SVG Version: 6.00 Build 0)  -->
<!DOCTYPE svg PUBLIC "-//W3C//DTD SVG 1.1//EN" "http://www.w3.org/Graphics/SVG/1.1/DTD/svg11.dtd">
<svg version="1.1" id="Layer_1" xmlns="http://www.w3.org/2000/svg" xmlns:xlink="http://www.w3.org/1999/xlink" x="0px" y="0px"
	 width="34px" height="46px" viewBox="0 0 34 46" enable-background="new 0 0 34 46" xml:space="preserve">
<filter  height="193.3%" width="250.0%" id="filter-2" filterUnits="objectBoundingBox" y="-33.3%" x="-53.6%">
	<feOffset  result="shadowOffsetOuter1" in="SourceAlpha" dy="4" dx="4"></feOffset>
	<feGaussianBlur  stdDeviation="4" result="shadowBlurOuter1" in="shadowOffsetOuter1"></feGaussianBlur>
	<feColorMatrix  type="matrix" values="0 0 0 0 0   0 0 0 0 0   0 0 0 0 0  0 0 0 0.25 0" in="shadowBlurOuter1"></feColorMatrix>
</filter>
<title>Shape</title>
<desc>Created with Sketch.</desc>
<g id="Page-1">
	<g id="noun_Marker_335082" transform="translate(4.000000, 4.000000)">
		<g id="Shape">
			<g filter="url(#filter-2)">
				<path id="path-1_2_" d="M18.667,9.333C18.667,4.167,14.5,0,9.333,0S0,4.167,0,9.333c0,0.033,0,0.1,0,0.133l0,0
					c0,0.367,0.033,0.8,0.1,1.267c0,0.033,0,0.033,0,0.067C1.067,16.967,7.7,29,7.7,29l0,0c0.3,0.6,0.933,1,1.633,1
					s1.333-0.4,1.633-1l0,0c0,0,6.633-12.033,7.567-18.233c0-0.033,0-0.033,0-0.067c0.067-0.467,0.1-0.867,0.1-1.267l0,0
					C18.667,9.433,18.667,9.367,18.667,9.333z M9.333,14.5c-2.767,0-5-2.233-5-5s2.233-5,5-5s5,2.233,5,5S12.1,14.5,9.333,14.5z"/>
			</g>
			<g>
				<path id="path-1_1_" fill="#242424" d="M18.667,9.333C18.667,4.167,14.5,0,9.333,0S0,4.167,0,9.333c0,0.033,0,0.1,0,0.133l0,0
					c0,0.367,0.033,0.8,0.1,1.267c0,0.033,0,0.033,0,0.067C1.067,16.967,7.7,29,7.7,29l0,0c0.3,0.6,0.933,1,1.633,1
					s1.333-0.4,1.633-1l0,0c0,0,6.633-12.033,7.567-18.233c0-0.033,0-0.033,0-0.067c0.067-0.467,0.1-0.867,0.1-1.267l0,0
					C18.667,9.433,18.667,9.367,18.667,9.333z M9.333,14.5c-2.767,0-5-2.233-5-5s2.233-5,5-5s5,2.233,5,5S12.1,14.5,9.333,14.5z"/>
			</g>
		</g>
	</g>
</g>
</svg>
