<svg width="175" height="175" viewBox="0 0 175 175" fill="black" xmlns="http://www.w3.org/2000/svg"><path fill-rule="evenodd" clip-rule="evenodd" d="M111.3 29.5H143.6V58.1699L153.9 63.2798V126.2H141.248C141.717 127.404 142 128.723 142 130.1C142 135.952 137.252 140.7 131.4 140.7C125.548 140.7 120.8 135.952 120.8 130.1C120.8 128.74 121.052 127.413 121.538 126.2H105.5V145.6H71.1V126.2H53.9483C54.4168 127.404 54.7 128.723 54.7 130.1C54.7 135.952 49.9523 140.7 44.1 140.7C38.2477 140.7 33.5 135.952 33.5 130.1C33.5 128.74 33.7524 127.413 34.2378 126.2H21.5065L21.0959 63.5751L88.6053 30.8863L111.3 42.1454V29.5ZM73.1 124.2H103.5V72.6H73.1V124.2ZM105.5 124.2V70.6H71.1V124.2H35.5182L35.3936 124.109C35.3714 124.139 35.3493 124.169 35.3275 124.2H23.4935L23.1041 64.8249L88.5947 33.1136L151.9 64.5202V124.2H122.818L122.694 124.109C122.671 124.139 122.649 124.169 122.627 124.2H105.5ZM141.6 31.5V57.1776L113.3 43.1377V31.5H141.6ZM123.738 126.2C123.131 127.347 122.8 128.689 122.8 130.1C122.8 134.848 126.652 138.7 131.4 138.7C136.148 138.7 140 134.848 140 130.1C140 128.722 139.645 127.388 139.068 126.2H123.738ZM36.4382 126.2H51.7678C52.3446 127.388 52.7 128.722 52.7 130.1C52.7 134.848 48.8477 138.7 44.1 138.7C39.3523 138.7 35.5 134.848 35.5 130.1C35.5 128.689 35.8315 127.347 36.4382 126.2ZM31.7 70.7H56.4V101.6H31.7V70.7ZM33.7 72.7V99.6H54.4V72.7H33.7ZM143.7 70.7H119V101.6H143.7V70.7ZM121 99.6V72.7H141.7V99.6H121ZM73.1 134.6V143.6H103.5V134.6H73.1ZM73.1 132.6H103.5V126.5H73.1V132.6Z"></path></svg>