<svg width="175" height="175" viewBox="0 0 175 175" fill="black" xmlns="http://www.w3.org/2000/svg"><path fill-rule="evenodd" clip-rule="evenodd" d="M66.3986 46.2813L70.205 50.1041L107.418 50.2965L111.392 46.2872L115.658 50.499L150.525 50.3985L160.2 64.4898V71.3H157.79L156.921 122.3H160.6V129.8H14.4V122.5H18.6V71.6112L16.2 71.5921V64.2608L31.6131 50.0975L62.4159 50.2968L66.3986 46.2813ZM117.678 52.4932L134.7 69.3H158.2V65.1102L149.475 52.4015L117.678 52.4932ZM133.3 70.7281L111.408 49.1128L89.9 70.809V122.5H106.6V98.8H118.4V122.5H133.3V70.7281ZM88.9481 68.9284L105.446 52.2863L72.2067 52.1145L88.9481 68.9284ZM66.4014 49.1187L87.9 70.7103V122.5H70.9V98.8H59.1V122.5H44.1V71.6036L66.4014 49.1187ZM42.1 72.2L41.6919 71.7952L20.6 71.6271V122.5H42.1V72.2ZM60.4448 52.2841L42.7744 70.1H42.3056L42.308 69.8L18.2 69.6079V65.1392L32.3869 52.1025L60.4448 52.2841ZM108.6 122.5H116.4V100.8H108.6V122.5ZM68.9 100.8V122.5H61.1V100.8H68.9ZM156.886 124.3L156.883 124.5H19.6H18.6H16.4V127.8H158.6V124.3H156.886ZM135.3 122.5V71.3H155.79L154.917 122.5H135.3ZM66.8 54.7C65.4745 54.7 64.4 55.7745 64.4 57.1C64.4 58.4255 65.4745 59.5 66.8 59.5C68.1255 59.5 69.2 58.4255 69.2 57.1C69.2 55.7745 68.1255 54.7 66.8 54.7ZM62.4 57.1C62.4 54.6699 64.3699 52.7 66.8 52.7C69.2301 52.7 71.2 54.6699 71.2 57.1C71.2 59.5301 69.2301 61.5 66.8 61.5C64.3699 61.5 62.4 59.5301 62.4 57.1ZM109.2 57.1C109.2 55.7745 110.275 54.7 111.6 54.7C112.925 54.7 114 55.7745 114 57.1C114 58.4255 112.925 59.5 111.6 59.5C110.275 59.5 109.2 58.4255 109.2 57.1ZM111.6 52.7C109.17 52.7 107.2 54.6699 107.2 57.1C107.2 59.5301 109.17 61.5 111.6 61.5C114.03 61.5 116 59.5301 116 57.1C116 54.6699 114.03 52.7 111.6 52.7ZM25.1 76.5H37.1V92.5H25.1V76.5ZM27.1 88.2V90.5H35.1V88.2H27.1ZM27.1 86.2H35.1V83H27.1V86.2ZM27.1 81H35.1V78.5H27.1V81ZM37.1 99H25.1V115H37.1V99ZM27.1 113V110.7H35.1V113H27.1ZM35.1 108.7H27.1V105.5H35.1V108.7ZM35.1 103.5H27.1V101H35.1V103.5ZM137.6 76.5H149.6V92.5H137.6V76.5ZM139.6 88.2V90.5H147.6V88.2H139.6ZM139.6 86.2H147.6V83H139.6V86.2ZM139.6 81H147.6V78.5H139.6V81ZM149.6 99H137.6V115H149.6V99ZM139.6 113V110.7H147.6V113H139.6ZM147.6 108.7H139.6V105.5H147.6V108.7ZM147.6 103.5H139.6V101H147.6V103.5ZM51.4 74.7H63.4V90.6H51.4V74.7ZM53.4 86.3V88.6H61.4V86.3H53.4ZM53.4 84.3H61.4V81.2H53.4V84.3ZM53.4 79.2H61.4V76.7H53.4V79.2ZM79.3 74.5H67.4V90.4H79.3V74.5ZM69.4 88.4V86.1H77.3V88.4H69.4ZM77.3 84.1H69.4V81H77.3V84.1ZM77.3 79H69.4V76.5H77.3V79ZM98.9 74.7H110.9V90.6H98.9V74.7ZM100.9 86.3V88.6H108.9V86.3H100.9ZM100.9 84.3H108.9V81.2H100.9V84.3ZM100.9 79.2H108.9V76.7H100.9V79.2ZM126.8 74.5H114.9V90.4H126.8V74.5ZM116.9 88.4V86.1H124.8V88.4H116.9ZM124.8 84.1H116.9V81H124.8V84.1ZM124.8 79H116.9V76.5H124.8V79Z"></path></svg>