<?xml version="1.0" encoding="UTF-8"?>
<svg width="40px" height="40px" viewBox="0 0 40 40" version="1.1" xmlns="http://www.w3.org/2000/svg" xmlns:xlink="http://www.w3.org/1999/xlink">
    <!-- Generator: Sketch 63.1 (92452) - https://sketch.com -->
    <title>equivalent to planting copy 2</title>
    <desc>Created with Sketch.</desc>
    <g id="Page-1" stroke="none" stroke-width="1" fill="none" fill-rule="evenodd">
        <g id="Homepage-V1" transform="translate(-760.000000, -1486.000000)" fill="#91b5ca" fill-rule="nonzero">
            <g id="3-Boxs" transform="translate(0.000000, 996.000000)">
                <g id="Partial-Report" transform="translate(100.000000, 390.000000)">
                    <g id="3" transform="translate(630.000000, 53.000000)">
                        <g id="equivalent-to-planting-copy-2" transform="translate(30.000000, 47.000000)">
                            <path d="M20.6164994,24.1498794 C20.6164994,23.5936801 20.6020632,22.6159567 20.571941,22.1836211 C20.6596402,19.3990834 21.4117243,16.6758533 22.7654911,14.24097 C22.7834894,14.2102228 22.799113,14.1780382 22.8172988,14.1472285 C23.4025803,14.5001754 24.0417087,14.7548979 24.7093139,14.9012848 C25.2733247,15.0265858 25.8493333,15.0899139 26.4270948,15.0901426 C26.6817591,15.0901426 26.935736,15.0782687 27.1909627,15.053021 C28.9200301,14.8791252 30.5719601,14.2494077 31.9780264,13.2281873 C37.0330032,9.5949559 39.8162496,2.70514634 39.931989,2.41336043 C40.0253328,2.17601556 40.0177737,1.91085678 39.91106,1.67921515 C39.8043463,1.44757352 39.6077218,1.26951423 39.3666655,1.18622227 C36.9537513,0.424440177 34.4409316,0.0258634179 31.9107201,0.00358005412 C29.5458997,-0.046942714 27.2002585,0.437849618 25.0492204,1.42170081 C22.8448621,2.46236406 21.1569534,4.3527343 20.3715842,6.66041086 C19.7606142,8.4301023 19.905135,10.3732681 20.7711728,12.0331087 C20.9037551,12.2770631 21.0546535,12.5106078 21.2225692,12.7317325 C21.2639404,12.7856651 21.3096237,12.8359105 21.355932,12.885906 L21.4309252,12.929152 C20.5716077,14.311391 19.9109084,15.8075892 19.4682291,17.3738094 C19.0286483,16.2967441 18.4525723,15.2805879 17.7541353,14.3502725 C17.5957122,14.1407291 17.4336645,13.9403099 17.2709918,13.7503272 C17.0986325,13.5461791 16.9244192,13.3524468 16.748352,13.1691302 C16.5380621,12.9442154 16.3121228,12.7344608 16.0722261,12.5414374 C16.5318987,11.2172542 16.4709309,9.76783485 15.9016791,8.48693189 C15.1099504,6.70568389 13.6295462,5.32177387 11.799053,4.65171893 C10.4883731,4.17828349 9.10326648,3.94429246 7.70980072,3.96090689 C5.24835322,4.00564011 2.81835816,4.52231187 0.551640609,5.48289317 C0.319868556,5.58829177 0.140580138,5.78295292 0.0545609129,6.02259399 C-0.0318305889,6.26267593 -0.0150695403,6.52779907 0.100869192,6.75508973 C0.211109145,6.97381979 2.84811881,12.1439111 7.08960724,14.6435583 C8.29291658,15.3570234 9.66422735,15.737864 11.0631201,15.7470827 C11.7203108,15.7472304 12.3734873,15.6446688 12.9990062,15.4431104 C13.6374751,15.2403918 14.2298927,14.9142011 14.7425973,14.4830729 C14.8572507,14.3823547 14.9657685,14.2748595 15.0675676,14.1611647 L15.0572561,14.1163563 C15.2399894,14.2933402 15.4202855,14.4745112 15.5926448,14.6630565 C15.7480056,14.8293538 15.8959921,15.0005257 16.0385416,15.1781346 C16.1841534,15.3544935 16.3236407,15.5347896 16.4546287,15.7181478 C17.8023293,17.6322224 18.5821792,19.8879384 18.7044237,22.2256798 C18.6856754,22.6626399 18.679426,23.6458628 18.6841755,24.1759395 C8.78689006,24.6825808 0.844238942,30.8579555 0.00756519607,38.6386839 C-0.0245388474,38.9894483 0.0931277224,39.3374392 0.331514572,39.5967422 C0.569901422,39.8560451 0.906792436,40.0024949 1.25901364,39.9999678 L38.7384728,39.9999678 C39.090694,40.0024949 39.427585,39.8560451 39.6659719,39.5967422 C39.9043587,39.3374392 40.0220253,38.9894483 39.9899212,38.6386839 C39.1338743,30.6757846 30.8352556,24.395107 20.6164994,24.1498794 Z M22.1476099,7.24085795 C22.7732264,5.41794905 24.1108376,3.92636316 25.8550845,3.10660975 C27.2389327,2.46294954 28.7272152,2.07328826 30.248934,1.95621459 C30.786385,1.91871801 31.329523,1.89953226 31.8649742,1.89953226 C33.7178268,1.90797444 35.5640355,2.12176031 37.369785,2.53697416 C37.5102722,2.57134603 37.6523843,2.5979686 37.792309,2.63496523 C36.9173888,4.50473232 34.4984217,9.11593706 30.8824388,11.7148877 C29.2383335,12.9585396 27.1470861,13.4536089 25.1199015,13.0790759 C24.7363229,12.9882621 24.3622547,12.8611593 24.0027533,12.6994855 C23.9637568,12.6791123 23.9220731,12.6641137 23.8836392,12.6426781 L23.9496956,12.5573734 C24.0015034,12.490067 24.0532487,12.4224482 24.1080562,12.3560793 C24.252418,12.1790954 24.3998421,12.0054862 24.554578,11.8340018 C25.0776212,11.2504316 25.6423687,10.7056305 26.2443615,10.2039004 C28.0652635,8.67524508 30.1864934,7.54542831 32.4711065,6.88739017 C32.9329133,6.77853063 33.2399062,6.34095684 33.1851206,5.8696666 C33.130335,5.39837635 32.7311524,5.04289261 32.2566885,5.04287078 C32.1808567,5.04310664 32.1053258,5.05242211 32.031709,5.07061825 C29.4853033,5.78215106 27.1202522,7.02938523 25.0948413,8.72884734 C24.4863692,9.23389755 23.9126605,9.77941974 23.3776228,10.3616985 C23.2077008,10.5450568 23.0395911,10.7360394 22.8751061,10.932459 C22.7692247,11.0519285 22.6789286,11.1843489 22.6063806,11.3265481 C22.5933192,11.3432341 22.579883,11.3591076 22.5667592,11.3757936 C22.5533229,11.3561079 22.5392617,11.3370471 22.524638,11.3180489 C22.5046674,11.2932021 22.4863584,11.2670643 22.4698305,11.239806 L22.4155854,11.1432523 C21.7938958,9.93450777 21.697071,8.52318037 22.1478598,7.24085795 L22.1476099,7.24085795 Z M14.4804961,11.2424308 C13.1402046,10.3146924 11.6546189,9.61689778 10.0848343,9.17774393 C10.0147219,9.16136195 9.9429792,9.15297591 9.87097875,9.15274621 C9.39953736,9.15256576 9.00191608,9.50384587 8.94397317,9.97171298 C8.88603027,10.4395801 9.18594464,10.8772464 9.64318701,10.9920786 C10.9723086,11.3889134 12.2354867,11.9799956 13.3917829,12.7461687 C13.4816497,12.8078506 13.5751412,12.8630955 13.6636956,12.9269647 C13.647697,12.9433382 13.6324484,12.9605242 13.6178873,12.9776476 C13.5992362,13.0011425 13.5786675,13.023049 13.5563929,13.0431416 C13.2262744,13.3222919 12.8440557,13.533177 12.4318704,13.6635851 C10.9441386,14.0804904 9.34961368,13.8514988 8.03933319,13.0327676 C5.42613385,11.4926579 3.44381452,8.70984907 2.39447266,7.07706038 C2.34122751,6.99081824 2.29179451,6.90938816 2.24504877,6.83158276 C4.00796724,6.20856773 5.85922964,5.87169262 7.72861151,5.8337362 C8.89269236,5.81734 10.0502298,6.01048164 11.1459251,6.40393423 C12.499777,6.89462552 13.5966546,7.91354452 14.185648,9.22761438 C14.473821,9.85743023 14.5761157,10.5564507 14.4804961,11.2424308 Z M1.97969796,38.1188563 C3.17777627,31.2959156 10.8017689,26.019209 19.9987432,26.019209 C29.1957175,26.019209 36.8197102,31.2959156 38.0177885,38.1188563 L1.97969796,38.1188563 Z" id="Shape"></path>
                        </g>
                    </g>
                </g>
            </g>
        </g>
    </g>
</svg>