<?xml version="1.0" encoding="UTF-8"?>
<svg width="40px" height="40px" viewBox="0 0 40 40" version="1.1" xmlns="http://www.w3.org/2000/svg" xmlns:xlink="http://www.w3.org/1999/xlink">
    <!-- Generator: Sketch 63.1 (92452) - https://sketch.com -->
    <title>reduce co2 emissions</title>
    <desc>Created with Sketch.</desc>
    <g id="Page-1" stroke="none" stroke-width="1" fill="none" fill-rule="evenodd">
        <g id="Homepage-V1" transform="translate(-445.000000, -1486.000000)" fill="#91b5ca" fill-rule="nonzero">
            <g id="3-Boxs" transform="translate(0.000000, 996.000000)">
                <g id="Partial-Report" transform="translate(100.000000, 390.000000)">
                    <g id="2" transform="translate(315.000000, 53.000000)">
                        <g id="reduce-co2-emissions" transform="translate(30.000000, 47.000000)">
                            <path d="M19.7786574,10.4144579 C20.0393507,10.4144579 20.288973,10.5198436 20.4708062,10.7066528 C20.6526395,10.893462 20.7512431,11.1458377 20.7442128,11.4064362 L20.7442128,11.4064362 L20.7430287,11.4507443 C20.5755445,14.2643698 20.5948223,17.0860051 20.8007352,19.8970795 C20.9634771,21.9999077 21.2422556,24.0921405 21.6357967,26.1642159 C21.6397851,26.136422 21.642901,26.1092514 21.6467647,26.0815199 C21.645929,25.9365564 21.6551953,25.7917109 21.6744962,25.6480357 L21.6744962,25.6480357 L21.711887,25.353957 C21.7987583,24.6123725 21.8969092,23.7386116 21.9592272,22.8861634 C22.1364506,20.5234565 22.1518791,18.1513952 22.0054049,15.7865829 C21.9856946,15.5227284 22.0767803,15.2625878 22.2567789,15.0686595 C22.4367775,14.8747312 22.6894201,14.7645429 22.9540098,14.7645674 L22.9540098,14.7645674 L33.4337197,14.7645674 C33.6950471,14.7645699 33.9448654,14.8720776 34.1245259,15.0618515 C34.3041864,15.2516254 34.3978656,15.5069513 34.3835709,15.7678875 L34.3835709,15.7678875 L34.3826362,15.7850249 C34.238035,18.1500295 34.2548792,20.5221421 34.4330515,22.8848547 C34.8797439,28.1036848 36.0836769,33.2297102 38.0069899,38.1017312 L38.0069899,38.1017312 L38.9398907,38.1017935 C39.2807939,38.0990311 39.5969902,38.2793167 39.7682442,38.5740957 C39.9394982,38.8688748 39.9394982,39.2328569 39.7682442,39.5276359 C39.5969902,39.822415 39.2807939,40.0027005 38.9398907,39.9999694 L38.9398907,39.9999694 L0.906330415,39.8868932 C0.407279677,39.8883904 0.00150543806,39.4850435 4.13142924e-06,38.9859928 C-0.00148886637,38.486942 0.401858009,38.0811678 0.900908747,38.0796706 L0.900908747,38.0796706 L1.70350253,38.0724417 C3.97730391,32.2470232 5.40782873,26.1268296 5.9517843,19.8970795 C6.04706855,18.6300295 6.09368243,17.4307192 6.11237783,16.34919 C6.06977741,16.1941813 6.07235032,16.0302281 6.11979368,15.8766324 C6.14659043,13.2661306 6.01098642,11.4770425 6.00892992,11.4516168 L6.00892992,11.4516168 L6.00853089,11.316669 C6.02309427,11.0963017 6.11294202,10.8860374 6.26520803,10.7223951 C6.44792724,10.5260242 6.70407329,10.4144579 6.9723042,10.4144579 L6.9723042,10.4144579 Z M18.7290973,17.0596154 L8.02367152,17.0596154 C7.99861967,17.9912698 7.95325216,18.9960233 7.8749184,20.0419689 C7.34550762,26.232029 5.94938964,32.3170669 3.7274672,38.1188063 L3.7274672,38.1188063 L5.10993016,38.1188063 L8.95277088,38.0876473 L23.057707,38.0723171 C23.0447448,38.038977 23.0299755,37.9994673 23.0164524,37.9641953 C22.9014272,37.7336074 22.8011634,37.4959466 22.7162665,37.2526482 C20.6700642,31.7140001 19.3786459,25.9251405 18.876791,20.0419689 C18.7983326,18.9931566 18.7540245,17.9940118 18.7290973,17.0596154 L18.7290973,17.0596154 Z M32.4084636,20.877342 L23.9964656,20.877342 C23.9744051,21.5605968 23.9389461,22.2816786 23.8828599,23.0303049 C23.6764286,25.6440706 23.2734627,28.2385804 22.6773801,30.7918274 C23.3316283,33.2755479 24.1378173,35.7167374 25.0913932,38.1016066 L25.0913932,38.1016066 L35.9751732,38.0726287 C35.9620241,38.0382915 35.9478156,37.9996543 35.9342926,37.9640707 C35.8225583,37.7392885 35.7256747,37.5074257 35.6442645,37.2699726 C33.9631427,32.6861678 32.9087489,27.8963271 32.5096681,23.0303049 C32.4595021,22.3617572 32.4280315,21.6163714 32.4084636,20.877342 L32.4084636,20.877342 Z M32.3973087,16.6609047 L32.1970809,16.6605931 L23.9518459,16.6764219 L23.9535285,16.7212286 C23.9902338,17.2596563 24.0195233,18.0560182 24.0232624,19.0076144 L24.0232624,19.0076144 L32.380919,19.0076144 C32.3753104,17.673074 32.3973087,16.6609047 32.3973087,16.6609047 L32.3973087,16.6609047 Z M18.76412,12.3220749 L18.4117116,12.3259386 L7.95798832,12.3414558 L7.95942164,12.3822741 L8.03046418,13.5499268 C8.04168143,14.0206772 8.04878568,14.5784234 8.04878568,15.1903241 L8.04878568,15.1903241 L18.7032353,15.1903241 C18.7038585,13.9946282 18.7340204,12.9976022 18.76412,12.3220749 L18.76412,12.3220749 Z M26.6461032,7.56720992 C26.9460895,7.42033375 27.3016457,7.44465535 27.5788374,7.631013 C27.856029,7.81737065 28.012744,8.13745219 27.9899493,8.47068601 C27.9671547,8.80391982 27.7683135,9.09967977 27.4683272,9.24655593 C27.4303189,9.29844821 27.4105938,9.36148071 27.412241,9.42578256 C27.4342891,9.69375836 27.4985856,9.95656012 27.6027472,10.2044462 C27.81418,10.7136909 27.9071921,11.2643054 27.8747653,11.8147439 C27.7638513,12.4645574 27.4869359,13.0746942 27.0708628,13.586009 C26.9282674,13.788848 26.7109268,13.9267247 26.4666639,13.9693013 C26.222401,14.0118778 25.9712294,13.9556657 25.7684162,13.8130335 C25.3463644,13.5159143 25.2447157,12.9331001 25.541267,12.5106492 C25.7607983,12.2499438 25.9225788,11.9456683 26.0159434,11.6178812 C26.0101741,11.3572363 25.9543856,11.1001267 25.8516108,10.8605303 C25.6586467,10.3900172 25.5540542,9.88796877 25.5430743,9.37954259 C25.5428671,8.6166833 25.9684153,7.91748602 26.6461032,7.56720992 Z M30.4903773,6.35524906 C30.9326566,6.09784002 31.4997013,6.24390366 31.7625816,6.68295305 C32.0254619,7.12200244 31.8864497,7.69081685 31.450698,7.95912795 C31.3628589,8.08529581 31.3186148,8.23669282 31.3246909,8.39030633 C31.3430493,8.75662003 31.412499,9.11857224 31.5310259,9.46566609 C31.7277353,10.0461595 31.8154157,10.658021 31.7896457,11.270396 C31.6900765,11.9897699 31.4296577,12.6774536 31.0277455,13.2823332 C30.9039112,13.4971492 30.6997181,13.6538878 30.4601931,13.7179864 C30.2206682,13.782085 29.965484,13.7482789 29.7509116,13.624023 C29.5362117,13.5000185 29.3795717,13.2957973 29.3154561,13.0562929 C29.2513405,12.8167885 29.2850022,12.5616234 29.409035,12.3469398 C29.6647486,11.9740459 29.8412173,11.552642 29.9275209,11.1088053 C29.9298777,10.7421167 29.869168,10.3777529 29.748045,10.0316384 C29.5662577,9.48992232 29.4675078,8.92381227 29.4551503,8.35254161 C29.4386211,7.55416705 29.8284867,6.80198836 30.4903773,6.35524906 Z M10.8826977,1.6086724 C11.1835975,1.45551287 11.5437057,1.47652085 11.824755,1.66363013 C12.1058043,1.85073941 12.26411,2.17486681 12.2388889,2.51156025 C12.2136679,2.84825369 12.0088404,3.14517953 11.7030521,3.28833 C11.5840784,3.38181988 11.5180143,3.52733753 11.5259443,3.67844081 C11.550856,4.026525 11.6322477,4.36823539 11.766928,4.69017387 L11.766928,4.69017387 L11.7876176,4.74981222 C12.021921,5.32164186 12.1246824,5.93882769 12.0883021,6.55572613 C11.9582196,7.3104738 11.6341618,8.01844016 11.1479232,8.61016431 C11.0053277,8.81300333 10.7879871,8.95088009 10.5437242,8.99345663 C10.2994613,9.03603318 10.0482897,8.979821 9.84547653,8.83718885 C9.42375574,8.53980304 9.32260688,7.95703279 9.61944907,7.53492918 C9.9072147,7.19264839 10.1156479,6.79091331 10.2297918,6.35855191 C10.2266188,6.01416715 10.1552626,5.67382165 10.0198423,5.35716364 L10.0198423,5.35716364 L9.99915276,5.29783689 C9.78482133,4.76798801 9.66868036,4.20356401 9.65640365,3.63213852 C9.65499416,2.78150636 10.1279731,2.00105986 10.8826977,1.6086724 Z M15.5565492,0.131361412 C16.0005495,-0.132464325 16.5743558,0.0135959902 16.8381816,0.457596261 C17.1020073,0.901596532 16.955947,1.47540289 16.5119468,1.73922866 C16.3380568,1.92342132 16.2493162,2.17205767 16.2672862,2.42472688 C16.2879043,2.88622271 16.3739304,3.34245502 16.5227901,3.77976991 L16.5227901,3.77976991 L16.5446637,3.8557979 C16.7639426,4.51416056 16.8610919,5.20704645 16.8313266,5.90032751 C16.712055,6.74307332 16.4054128,7.54837111 15.9339471,8.25700809 C15.8099459,8.47183903 15.6055876,8.62852643 15.3659347,8.6925196 C15.1262819,8.75651276 14.8710169,8.72255597 14.6564277,8.59813693 C14.2096776,8.33962257 14.0568339,7.76804854 14.3149249,7.32105374 C14.6410987,6.84530174 14.8639982,6.30650058 14.9692642,5.73936006 C14.9746489,5.27087991 14.8988726,4.80500511 14.7452932,4.36238109 L14.7452932,4.36238109 L14.7240427,4.28759946 C14.520405,3.67364 14.4104259,3.03250476 14.3978079,2.38577812 C14.3765089,1.48637241 14.8127975,0.637540857 15.5565492,0.131361412 Z" id="Combined-Shape"></path>
                        </g>
                    </g>
                </g>
            </g>
        </g>
    </g>
</svg>