<?xml version="1.0" encoding="UTF-8"?>
<svg width="40px" height="40px" viewBox="0 0 40 40" version="1.1" xmlns="http://www.w3.org/2000/svg" xmlns:xlink="http://www.w3.org/1999/xlink">
    <!-- Generator: Sketch 63.1 (92452) - https://sketch.com -->
    <title>saves you</title>
    <desc>Created with Sketch.</desc>
    <g id="Page-1" stroke="none" stroke-width="1" fill="none" fill-rule="evenodd">
        <g id="Homepage-V1" transform="translate(-130.000000, -1486.000000)" fill="#91b5ca" fill-rule="nonzero">
            <g id="3-Boxs" transform="translate(0.000000, 996.000000)">
                <g id="Partial-Report" transform="translate(100.000000, 390.000000)">
                    <g id="1" transform="translate(0.000000, 53.000000)">
                        <g id="saves-you" transform="translate(30.000000, 47.000000)">
                            <path d="M36.3514742,23.1191546 C36.8888402,23.12141 37.4194074,23.2394607 37.9070339,23.4652651 C38.7979991,23.8921259 39.4838592,24.6541976 39.8148288,25.5850511 C40.2740434,27.0476799 39.825611,28.6434765 38.6717518,29.6528179 L38.6717518,29.6528179 L28.2062536,38.142149 C26.7313772,39.3496951 24.8820504,40.0059941 22.9759106,39.9983211 C22.6797809,40.005159 22.3835375,39.9911038 22.0893853,39.9562604 L22.0893853,39.9562604 L8.60370137,38.5283203 L8.60370137,38.5671312 L8.63495006,38.9171165 C8.62754573,39.464864 8.18518007,39.9070356 7.63742943,39.9141997 L7.63742943,39.9141997 L0.99777062,39.9141997 C0.449991518,39.9070059 0.00757134036,39.4648905 0,38.9171165 L0,38.9171165 L0,24.1666106 C0.00710006366,23.6184738 0.449636038,23.1757992 0.99777062,23.1685275 L0.99777062,23.1685275 L7.59549369,23.1685275 C8.14356166,23.1758358 8.58598688,23.6185382 8.59295183,24.1666106 L8.59295183,24.1666106 L8.59295183,24.7445864 L9.09293084,24.5810932 L10.7373618,24.0106172 C11.7449514,23.6748515 12.8001691,23.504075 13.8622307,23.5048884 C14.9343744,23.5057498 15.999614,23.6764413 17.0183482,24.0106172 L17.0183482,24.0106172 L24.4144752,26.4057667 C24.8505948,26.5478213 25.2446175,26.795943 25.5611771,27.1278614 L25.5611771,27.1278614 L35.0250299,23.3805811 C35.4459586,23.2079704 35.8965286,23.1191546 36.3514742,23.1191546 Z M36.3593489,25.0005659 C36.1409615,25.0027589 35.9246425,25.0431587 35.7201882,25.1199456 L35.7201882,25.1199456 L26.3495815,28.7760422 C26.4297518,29.2054806 26.3924834,29.6485983 26.241711,30.0586133 C25.8345445,31.2341681 24.7243821,32.0202568 23.480327,32.0139063 L23.480327,32.0139063 L23.2280875,32.0139063 L15.2822336,31.257063 C14.7700194,31.2107007 14.3855952,30.7684965 14.4109414,30.2548134 C14.4362875,29.7411302 14.8623769,29.3389185 15.3766671,29.3432059 C15.4032285,29.3432059 15.4293524,29.3438308 15.4559138,29.3462682 L15.4559138,29.3462682 L23.3993304,30.1024865 C23.4273917,30.1049239 23.4560155,30.1061738 23.4840768,30.1061738 C23.8993249,30.0963909 24.2677701,29.8373741 24.4175376,29.4499514 C24.5062753,29.2111515 24.4914864,28.9461744 24.3767268,28.7187321 C24.260501,28.4855613 24.0547117,28.3094701 23.8063758,28.2306901 L23.8063758,28.2306901 L16.4106862,25.8348531 C14.7804297,25.2905283 13.017466,25.2905283 11.3872095,25.8348531 L11.3872095,25.8348531 L8.61363846,26.7598143 L8.63495006,36.5636528 L22.2648155,37.9607817 C22.5128211,37.9919009 22.7625212,38.0075763 23.0124716,38.0077172 C24.4491632,37.9966168 25.8385488,37.4929038 26.9485564,36.5807146 L26.9485564,36.5807146 L37.4123047,28.0925709 C37.9582514,27.6071815 38.1681797,26.8463932 37.9484072,26.1497149 C37.7856237,25.714538 37.4597839,25.3598488 37.0399453,25.1608189 C36.8288388,25.0546237 36.5956594,24.9997227 36.3593489,25.0005659 Z M6.63965881,25.0906969 L1.95316802,25.1219455 L1.95316802,37.9921553 L6.6709075,37.9605317 L6.63965881,25.0906969 Z M22.8718525,0 C28.5463401,0 33.1464212,4.60008111 33.1464212,10.2745687 C33.1464212,15.9490564 28.5463401,20.5491375 22.8718525,20.5491375 C17.2016446,20.5388186 12.6076026,15.9447767 12.5972837,10.2745687 C12.5972837,4.60008111 17.1973649,0 22.8718525,0 Z M10.7947344,16.1508846 C11.0088967,16.0269095 11.2642472,15.995294 11.5021783,16.0632946 C11.7401095,16.1312951 11.9401886,16.293072 12.0564939,16.5114945 C12.18657,16.7204009 12.2254911,16.9734375 12.164209,17.2117779 C12.1029269,17.4501183 11.9467801,17.6529991 11.7320701,17.773254 L11.7320701,17.773254 L9.31667145,19.179445 C9.17019864,19.249283 9.01020554,19.2861881 8.84794112,19.2875654 C8.51985615,19.2805616 8.21920382,19.1028711 8.05484941,18.8188351 C7.92479158,18.6099241 7.88588076,18.3568936 7.94716149,18.1185586 C8.00844222,17.8802237 8.16457693,17.6773434 8.37927329,17.5570756 L8.37927329,17.5570756 Z M33.6871486,16.4392475 C33.9460212,16.0012351 34.5109581,15.8560135 34.9489706,16.1148861 L34.9489706,16.1148861 L37.3643692,17.5210146 C37.7140899,17.732946 37.8803214,18.1515067 37.7712951,18.5456295 C37.6622688,18.9397524 37.3045585,19.213375 36.8956389,19.2154435 C36.7329115,19.2181429 36.5719932,19.1810029 36.4269085,19.1072605 L36.4269085,19.1072605 L34.0115099,17.7010695 C33.5734975,17.4421969 33.428276,16.87726 33.6871486,16.4392475 Z M22.8718525,1.80254934 C18.2152709,1.80850606 14.4418508,5.58192616 14.4358941,10.2385078 C14.4358941,14.8975589 18.2128013,18.6744662 22.8718525,18.6744662 C27.5309037,18.6744662 31.3078109,14.8975589 31.3078109,10.2385078 C31.3078109,5.57945657 27.5309037,1.80254934 22.8718525,1.80254934 Z M23.5569487,3.7492052 C23.6243819,3.74763447 23.689542,3.77370266 23.7372327,3.8214052 C23.7849235,3.86910774 23.8109755,3.93427429 23.8093131,4.00170703 L23.8093131,4.00170703 L23.8093131,5.1913446 C25.1742178,5.40109817 26.2175317,6.51893259 26.3327697,7.89504362 C26.3344328,7.96247091 26.3083789,8.0276316 26.2606861,8.07532439 C26.2129933,8.12301718 26.1478326,8.1490711 26.0804053,8.14740803 L26.0804053,8.14740803 L24.7104628,8.14740803 C24.5968851,8.1461389 24.496145,8.07418876 24.4580984,7.96716559 C24.3528677,7.41028103 23.8711104,7.00379263 23.3044593,6.99376895 L23.3044593,6.99376895 L22.5113051,6.99376895 C21.9234651,6.98611328 21.411283,7.39286612 21.2856066,7.96716559 C21.2298743,8.30696541 21.3254607,8.65414911 21.5472628,8.91753829 C21.7690648,9.18092746 22.094918,9.33420186 22.4392456,9.33710809 L22.4392456,9.33710809 L23.3044593,9.33710809 C24.1506581,9.33338956 24.9588864,9.68804741 25.5290889,10.3132956 C26.0992914,10.9385437 26.3781747,11.775944 26.2967087,12.6182204 C26.1292994,13.9635593 25.107072,15.0440369 23.7730647,15.2856709 L23.7730647,15.2856709 L23.7730647,16.511432 C23.7747103,16.5788485 23.7486487,16.6439928 23.7009579,16.6916718 C23.6532671,16.7393508 23.5881164,16.7653962 23.5207003,16.7638088 L23.5207003,16.7638088 L22.1507578,16.7638088 C22.0833468,16.7653782 22.0182068,16.7393269 21.97052,16.6916519 C21.9228332,16.6439769 21.8967658,16.5788433 21.8983934,16.511432 L21.8983934,16.511432 L21.8983934,15.3216694 C20.5333622,15.112069 19.4899246,13.9941315 19.3748118,12.6179079 C19.3731675,12.5504804 19.3992254,12.4853244 19.4469121,12.4376259 C19.4945988,12.3899274 19.5597483,12.3638534 19.6271762,12.365481 L19.6271762,12.365481 L20.9971187,12.365481 C21.1107006,12.366796 21.2114268,12.4387612 21.2494831,12.5457859 C21.3547138,13.1026705 21.8364711,13.5091589 22.4031222,13.5191826 L22.4031222,13.5191826 L23.1962764,13.5191826 C23.7840847,13.526784 24.2962189,13.1200485 24.4219124,12.5457859 C24.4776431,12.2059968 24.3820646,11.8588236 24.1602766,11.5954368 C23.9384885,11.3320499 23.6126526,11.1787678 23.2683359,11.1758434 L23.2683359,11.1758434 L22.5473036,11.1758434 C20.9595963,11.2221585 19.5989616,10.049219 19.4108103,8.4720194 C19.272248,6.88900019 20.3687956,5.46348018 21.9343918,5.1913446 L21.9343918,5.1913446 L21.9343918,4.00170703 C21.9327462,3.93425731 21.958821,3.86908133 22.0065352,3.82137888 C22.0542495,3.77367643 22.1194319,3.74761779 22.1868812,3.7492052 L22.1868812,3.7492052 Z M9.46097789,9.30092211 C9.97872311,9.30092211 10.3984385,9.72063754 10.3984385,10.2383828 C10.3984385,10.756128 9.97872311,11.1758434 9.46097789,11.1758434 L9.46097789,11.1758434 L6.68503191,11.1758434 C6.16728669,11.1758434 5.74757126,10.756128 5.74757126,10.2383828 C5.74757126,9.72063754 6.16728669,9.30092211 6.68503191,9.30092211 L6.68503191,9.30092211 Z M39.0586731,9.3010471 C39.5764183,9.3010471 39.9961337,9.72076253 39.9961337,10.2385078 C39.9961337,10.756253 39.5764183,11.1759684 39.0586731,11.1759684 L39.0586731,11.1759684 L36.2829771,11.1759684 C35.7690377,11.1668936 35.3545912,10.7524472 35.3455164,10.2385078 C35.3545892,9.72461595 35.7689615,9.31018836 36.2828521,9.3010471 L36.2828521,9.3010471 Z M36.427096,1.36975501 C36.6360121,1.23967647 36.889058,1.20075389 37.1274084,1.26203556 C37.3657588,1.32331723 37.5686507,1.47946483 37.6889181,1.69417889 C37.8189966,1.90309498 37.8579192,2.15614088 37.7966375,2.39449129 C37.7353558,2.6328417 37.5792083,2.83573359 37.3644942,2.95600093 L37.3644942,2.95600093 L34.9490331,4.3621919 C34.8025737,4.43206847 34.6425719,4.46897555 34.4803027,4.47031338 C34.1594832,4.47078187 33.8605471,4.30770867 33.6872735,4.03770552 C33.5571975,3.82879912 33.5182764,3.57576249 33.5795585,3.33742207 C33.6408406,3.09908165 33.7969874,2.89620093 34.0116974,2.77594598 L34.0116974,2.77594598 Z M8.05494316,1.65827415 C8.31381577,1.22024443 8.87876673,1.0750089 9.31679644,1.33388151 L9.31679644,1.33388151 L11.7321951,2.74007249 C12.0819158,2.95200389 12.2481472,3.37056463 12.1391209,3.76468744 C12.0300946,4.15881026 11.6723843,4.43243286 11.2634647,4.43450137 C11.1007355,4.43721854 10.9398129,4.40007762 10.7947344,4.32631841 L10.7947344,4.32631841 L8.37933579,2.92012743 C7.94130608,2.66125482 7.79607055,2.09630386 8.05494316,1.65827415 Z" id="Combined-Shape"></path>
                        </g>
                    </g>
                </g>
            </g>
        </g>
    </g>
</svg>